<svg width="1440" height="32" viewBox="0 0 1440 32" fill="none" xmlns="http://www.w3.org/2000/svg">
<path d="M-220.29 1.27578V13.4978H-242.508V1.27578H-247.548V30.6758H-242.508V18.0338H-220.29V30.6758H-215.25V1.27578H-220.29ZM-201.37 26.2658V17.9498H-181.294V13.5398H-201.37V5.68578H-177.514V1.27578H-206.368V30.6758H-177.094V26.2658H-201.37ZM-174.511 1.27578L-160.021 20.5118V30.6758H-154.981V20.5118L-140.533 1.27578H-146.329L-157.459 16.1858L-168.673 1.27578H-174.511ZM-91.4471 14.7578H-108.583V19.0838H-96.3191V22.4438C-98.4611 25.8038 -102.661 27.1478 -107.827 27.1478C-116.269 27.1478 -121.435 23.3678 -121.435 15.9758C-121.435 8.58378 -116.353 4.80378 -108.079 4.80378C-103.165 4.80378 -99.7211 6.23178 -97.1171 9.17178L-93.0011 6.23178C-95.9411 3.08178 -100.897 0.393781 -108.121 0.393781C-119.629 0.393781 -126.559 6.27378 -126.559 15.9758C-126.559 25.6778 -119.629 31.5578 -108.037 31.5578C-99.9731 31.5578 -94.1351 28.4078 -91.4471 24.0818V14.7578ZM-58.2579 1.27578V16.4798C-58.2579 23.0738 -62.1639 27.0638 -69.2199 27.0638C-76.2339 27.0638 -80.1399 23.0738 -80.1399 16.4798V1.27578H-85.1799V16.8158C-85.1799 25.5098 -79.5939 31.5578 -69.2199 31.5578C-58.8039 31.5578 -53.2179 25.5098 -53.2179 16.8158V1.27578H-58.2579ZM-18.6864 30.6758H-13.1844L-29.0604 1.27578H-34.6044L-50.5224 30.6758H-45.0624L-41.3244 23.5778H-22.4664L-18.6864 30.6758ZM-39.0564 19.2938L-31.8744 5.68578L-24.6924 19.2938H-39.0564ZM11.5211 1.27578H-8.34487V30.6758H-3.30487V20.5118H11.5211C18.6611 20.5118 23.4071 17.0678 23.4071 10.8938C23.4071 4.76178 18.6611 1.27578 11.5211 1.27578ZM11.1011 16.1858H-3.30487V5.68578H11.1011C15.4271 5.68578 18.2411 7.15578 18.2411 10.9358C18.2411 14.6738 15.4271 16.1858 11.1011 16.1858ZM53.9523 30.6758H59.4543L43.5783 1.27578H38.0343L22.1163 30.6758H27.5763L31.3143 23.5778H50.1723L53.9523 30.6758ZM33.5823 19.2938L40.7643 5.68578L47.9463 19.2938H33.5823ZM63.4538 1.27578L64.3778 21.8558H68.5778L69.4598 1.27578H63.4538ZM66.4778 31.1378C68.3258 31.1378 69.6698 29.9198 69.6698 28.2818C69.6698 26.6438 68.3258 25.3418 66.4778 25.3418C64.5878 25.3418 63.2438 26.6438 63.2438 28.2818C63.2438 29.9198 64.5878 31.1378 66.4778 31.1378ZM117.72 1.27578V13.4978H95.5018V1.27578H90.4618V30.6758H95.5018V18.0338H117.72V30.6758H122.76V1.27578H117.72ZM136.639 26.2658V17.9498H156.715V13.5398H136.639V5.68578H160.495V1.27578H131.641V30.6758H160.915V26.2658H136.639ZM163.499 1.27578L177.989 20.5118V30.6758H183.029V20.5118L197.477 1.27578H191.681L180.551 16.1858L169.337 1.27578H163.499ZM246.563 14.7578H229.427V19.0838H241.691V22.4438C239.549 25.8038 235.349 27.1478 230.183 27.1478C221.741 27.1478 216.575 23.3678 216.575 15.9758C216.575 8.58378 221.657 4.80378 229.931 4.80378C234.845 4.80378 238.289 6.23178 240.893 9.17178L245.009 6.23178C242.069 3.08178 237.113 0.393781 229.889 0.393781C218.381 0.393781 211.451 6.27378 211.451 15.9758C211.451 25.6778 218.381 31.5578 229.973 31.5578C238.037 31.5578 243.875 28.4078 246.563 24.0818V14.7578ZM279.752 1.27578V16.4798C279.752 23.0738 275.846 27.0638 268.79 27.0638C261.776 27.0638 257.87 23.0738 257.87 16.4798V1.27578H252.83V16.8158C252.83 25.5098 258.416 31.5578 268.79 31.5578C279.206 31.5578 284.792 25.5098 284.792 16.8158V1.27578H279.752ZM319.323 30.6758H324.825L308.949 1.27578H303.405L287.487 30.6758H292.947L296.685 23.5778H315.543L319.323 30.6758ZM298.953 19.2938L306.135 5.68578L313.317 19.2938H298.953ZM349.531 1.27578H329.665V30.6758H334.705V20.5118H349.531C356.671 20.5118 361.417 17.0678 361.417 10.8938C361.417 4.76178 356.671 1.27578 349.531 1.27578ZM349.111 16.1858H334.705V5.68578H349.111C353.437 5.68578 356.251 7.15578 356.251 10.9358C356.251 14.6738 353.437 16.1858 349.111 16.1858ZM383.652 31.5578C394.95 31.5578 401.922 25.6778 401.922 15.9758C401.922 6.27378 394.95 0.393781 383.652 0.393781C372.354 0.393781 365.382 6.27378 365.382 15.9758C365.382 25.6778 372.354 31.5578 383.652 31.5578ZM383.652 27.1058C375.63 27.1058 370.506 23.1158 370.506 15.9758C370.506 8.83578 375.672 4.84578 383.652 4.84578C391.632 4.84578 396.756 8.83578 396.756 15.9758C396.756 23.1158 391.632 27.1058 383.652 27.1058ZM407.944 1.27578L408.868 21.8558H413.068L413.95 1.27578H407.944ZM410.968 31.1378C412.816 31.1378 414.16 29.9198 414.16 28.2818C414.16 26.6438 412.816 25.3418 410.968 25.3418C409.078 25.3418 407.734 26.6438 407.734 28.2818C407.734 29.9198 409.078 31.1378 410.968 31.1378ZM462.21 1.27578V13.4978H439.992V1.27578H434.952V30.6758H439.992V18.0338H462.21V30.6758H467.25V1.27578H462.21ZM481.13 26.2658V17.9498H501.206V13.5398H481.13V5.68578H504.986V1.27578H476.132V30.6758H505.406V26.2658H481.13ZM507.989 1.27578L522.479 20.5118V30.6758H527.519V20.5118L541.967 1.27578H536.171L525.041 16.1858L513.827 1.27578H507.989ZM591.053 14.7578H573.917V19.0838H586.181V22.4438C584.039 25.8038 579.839 27.1478 574.673 27.1478C566.231 27.1478 561.065 23.3678 561.065 15.9758C561.065 8.58378 566.147 4.80378 574.421 4.80378C579.335 4.80378 582.779 6.23178 585.383 9.17178L589.499 6.23178C586.559 3.08178 581.603 0.393781 574.379 0.393781C562.871 0.393781 555.941 6.27378 555.941 15.9758C555.941 25.6778 562.871 31.5578 574.463 31.5578C582.527 31.5578 588.365 28.4078 591.053 24.0818V14.7578ZM624.242 1.27578V16.4798C624.242 23.0738 620.336 27.0638 613.28 27.0638C606.266 27.0638 602.36 23.0738 602.36 16.4798V1.27578H597.32V16.8158C597.32 25.5098 602.906 31.5578 613.28 31.5578C623.696 31.5578 629.282 25.5098 629.282 16.8158V1.27578H624.242ZM663.814 30.6758H669.316L653.44 1.27578H647.896L631.978 30.6758H637.438L641.176 23.5778H660.034L663.814 30.6758ZM643.444 19.2938L650.626 5.68578L657.808 19.2938H643.444ZM694.021 1.27578H674.155V30.6758H679.195V20.5118H694.021C701.161 20.5118 705.907 17.0678 705.907 10.8938C705.907 4.76178 701.161 1.27578 694.021 1.27578ZM693.601 16.1858H679.195V5.68578H693.601C697.927 5.68578 700.741 7.15578 700.741 10.9358C700.741 14.6738 697.927 16.1858 693.601 16.1858ZM736.452 30.6758H741.954L726.078 1.27578H720.534L704.616 30.6758H710.076L713.814 23.5778H732.672L736.452 30.6758ZM716.082 19.2938L723.264 5.68578L730.446 19.2938H716.082ZM745.954 1.27578L746.878 21.8558H751.078L751.96 1.27578H745.954ZM748.978 31.1378C750.826 31.1378 752.17 29.9198 752.17 28.2818C752.17 26.6438 750.826 25.3418 748.978 25.3418C747.088 25.3418 745.744 26.6438 745.744 28.2818C745.744 29.9198 747.088 31.1378 748.978 31.1378ZM800.22 1.27578V13.4978H778.002V1.27578H772.962V30.6758H778.002V18.0338H800.22V30.6758H805.26V1.27578H800.22ZM819.139 26.2658V17.9498H839.215V13.5398H819.139V5.68578H842.995V1.27578H814.141V30.6758H843.415V26.2658H819.139ZM845.999 1.27578L860.489 20.5118V30.6758H865.529V20.5118L879.977 1.27578H874.181L863.051 16.1858L851.837 1.27578H845.999ZM929.063 14.7578H911.927V19.0838H924.191V22.4438C922.049 25.8038 917.849 27.1478 912.683 27.1478C904.241 27.1478 899.075 23.3678 899.075 15.9758C899.075 8.58378 904.157 4.80378 912.431 4.80378C917.345 4.80378 920.789 6.23178 923.393 9.17178L927.509 6.23178C924.569 3.08178 919.613 0.393781 912.389 0.393781C900.881 0.393781 893.951 6.27378 893.951 15.9758C893.951 25.6778 900.881 31.5578 912.473 31.5578C920.537 31.5578 926.375 28.4078 929.063 24.0818V14.7578ZM962.252 1.27578V16.4798C962.252 23.0738 958.346 27.0638 951.29 27.0638C944.276 27.0638 940.37 23.0738 940.37 16.4798V1.27578H935.33V16.8158C935.33 25.5098 940.916 31.5578 951.29 31.5578C961.706 31.5578 967.292 25.5098 967.292 16.8158V1.27578H962.252ZM1001.82 30.6758H1007.33L991.449 1.27578H985.905L969.987 30.6758H975.447L979.185 23.5778H998.043L1001.82 30.6758ZM981.453 19.2938L988.635 5.68578L995.817 19.2938H981.453ZM1032.03 1.27578H1012.16V30.6758H1017.2V20.5118H1032.03C1039.17 20.5118 1043.92 17.0678 1043.92 10.8938C1043.92 4.76178 1039.17 1.27578 1032.03 1.27578ZM1031.61 16.1858H1017.2V5.68578H1031.61C1035.94 5.68578 1038.75 7.15578 1038.75 10.9358C1038.75 14.6738 1035.94 16.1858 1031.61 16.1858ZM1066.15 31.5578C1077.45 31.5578 1084.42 25.6778 1084.42 15.9758C1084.42 6.27378 1077.45 0.393781 1066.15 0.393781C1054.85 0.393781 1047.88 6.27378 1047.88 15.9758C1047.88 25.6778 1054.85 31.5578 1066.15 31.5578ZM1066.15 27.1058C1058.13 27.1058 1053.01 23.1158 1053.01 15.9758C1053.01 8.83578 1058.17 4.84578 1066.15 4.84578C1074.13 4.84578 1079.26 8.83578 1079.26 15.9758C1079.26 23.1158 1074.13 27.1058 1066.15 27.1058ZM1090.44 1.27578L1091.37 21.8558H1095.57L1096.45 1.27578H1090.44ZM1093.47 31.1378C1095.32 31.1378 1096.66 29.9198 1096.66 28.2818C1096.66 26.6438 1095.32 25.3418 1093.47 25.3418C1091.58 25.3418 1090.23 26.6438 1090.23 28.2818C1090.23 29.9198 1091.58 31.1378 1093.47 31.1378ZM1144.71 1.27578V13.4978H1122.49V1.27578H1117.45V30.6758H1122.49V18.0338H1144.71V30.6758H1149.75V1.27578H1144.71ZM1163.63 26.2658V17.9498H1183.71V13.5398H1163.63V5.68578H1187.49V1.27578H1158.63V30.6758H1187.91V26.2658H1163.63ZM1190.49 1.27578L1204.98 20.5118V30.6758H1210.02V20.5118L1224.47 1.27578H1218.67L1207.54 16.1858L1196.33 1.27578H1190.49ZM1273.55 14.7578H1256.42V19.0838H1268.68V22.4438C1266.54 25.8038 1262.34 27.1478 1257.17 27.1478C1248.73 27.1478 1243.56 23.3678 1243.56 15.9758C1243.56 8.58378 1248.65 4.80378 1256.92 4.80378C1261.83 4.80378 1265.28 6.23178 1267.88 9.17178L1272 6.23178C1269.06 3.08178 1264.1 0.393781 1256.88 0.393781C1245.37 0.393781 1238.44 6.27378 1238.44 15.9758C1238.44 25.6778 1245.37 31.5578 1256.96 31.5578C1265.03 31.5578 1270.86 28.4078 1273.55 24.0818V14.7578ZM1306.74 1.27578V16.4798C1306.74 23.0738 1302.84 27.0638 1295.78 27.0638C1288.77 27.0638 1284.86 23.0738 1284.86 16.4798V1.27578H1279.82V16.8158C1279.82 25.5098 1285.41 31.5578 1295.78 31.5578C1306.2 31.5578 1311.78 25.5098 1311.78 16.8158V1.27578H1306.74ZM1346.31 30.6758H1351.82L1335.94 1.27578H1330.4L1314.48 30.6758H1319.94L1323.68 23.5778H1342.53L1346.31 30.6758ZM1325.94 19.2938L1333.13 5.68578L1340.31 19.2938H1325.94ZM1376.52 1.27578H1356.66V30.6758H1361.7V20.5118H1376.52C1383.66 20.5118 1388.41 17.0678 1388.41 10.8938C1388.41 4.76178 1383.66 1.27578 1376.52 1.27578ZM1376.1 16.1858H1361.7V5.68578H1376.1C1380.43 5.68578 1383.24 7.15578 1383.24 10.9358C1383.24 14.6738 1380.43 16.1858 1376.1 16.1858ZM1418.95 30.6758H1424.45L1408.58 1.27578H1403.03L1387.12 30.6758H1392.58L1396.31 23.5778H1415.17L1418.95 30.6758ZM1398.58 19.2938L1405.76 5.68578L1412.95 19.2938H1398.58ZM1428.45 1.27578L1429.38 21.8558H1433.58L1434.46 1.27578H1428.45ZM1431.48 31.1378C1433.33 31.1378 1434.67 29.9198 1434.67 28.2818C1434.67 26.6438 1433.33 25.3418 1431.48 25.3418C1429.59 25.3418 1428.24 26.6438 1428.24 28.2818C1428.24 29.9198 1429.59 31.1378 1431.48 31.1378ZM1482.72 1.27578V13.4978H1460.5V1.27578H1455.46V30.6758H1460.5V18.0338H1482.72V30.6758H1487.76V1.27578H1482.72ZM1501.64 26.2658V17.9498H1521.72V13.5398H1501.64V5.68578H1525.5V1.27578H1496.64V30.6758H1525.92V26.2658H1501.64ZM1528.5 1.27578L1542.99 20.5118V30.6758H1548.03V20.5118L1562.48 1.27578H1556.68L1545.55 16.1858L1534.34 1.27578H1528.5ZM1611.56 14.7578H1594.43V19.0838H1606.69V22.4438C1604.55 25.8038 1600.35 27.1478 1595.18 27.1478C1586.74 27.1478 1581.57 23.3678 1581.57 15.9758C1581.57 8.58378 1586.66 4.80378 1594.93 4.80378C1599.84 4.80378 1603.29 6.23178 1605.89 9.17178L1610.01 6.23178C1607.07 3.08178 1602.11 0.393781 1594.89 0.393781C1583.38 0.393781 1576.45 6.27378 1576.45 15.9758C1576.45 25.6778 1583.38 31.5578 1594.97 31.5578C1603.04 31.5578 1608.87 28.4078 1611.56 24.0818V14.7578ZM1644.75 1.27578V16.4798C1644.75 23.0738 1640.85 27.0638 1633.79 27.0638C1626.78 27.0638 1622.87 23.0738 1622.87 16.4798V1.27578H1617.83V16.8158C1617.83 25.5098 1623.42 31.5578 1633.79 31.5578C1644.21 31.5578 1649.79 25.5098 1649.79 16.8158V1.27578H1644.75ZM1684.32 30.6758H1689.83L1673.95 1.27578H1668.41L1652.49 30.6758H1657.95L1661.69 23.5778H1680.54L1684.32 30.6758ZM1663.95 19.2938L1671.14 5.68578L1678.32 19.2938H1663.95ZM1714.53 1.27578H1694.66V30.6758H1699.7V20.5118H1714.53C1721.67 20.5118 1726.42 17.0678 1726.42 10.8938C1726.42 4.76178 1721.67 1.27578 1714.53 1.27578ZM1714.11 16.1858H1699.7V5.68578H1714.11C1718.44 5.68578 1721.25 7.15578 1721.25 10.9358C1721.25 14.6738 1718.44 16.1858 1714.11 16.1858ZM1748.65 31.5578C1759.95 31.5578 1766.92 25.6778 1766.92 15.9758C1766.92 6.27378 1759.95 0.393781 1748.65 0.393781C1737.35 0.393781 1730.38 6.27378 1730.38 15.9758C1730.38 25.6778 1737.35 31.5578 1748.65 31.5578ZM1748.65 27.1058C1740.63 27.1058 1735.51 23.1158 1735.51 15.9758C1735.51 8.83578 1740.67 4.84578 1748.65 4.84578C1756.63 4.84578 1761.76 8.83578 1761.76 15.9758C1761.76 23.1158 1756.63 27.1058 1748.65 27.1058ZM1772.94 1.27578L1773.87 21.8558H1778.07L1778.95 1.27578H1772.94ZM1775.97 31.1378C1777.82 31.1378 1779.16 29.9198 1779.16 28.2818C1779.16 26.6438 1777.82 25.3418 1775.97 25.3418C1774.08 25.3418 1772.73 26.6438 1772.73 28.2818C1772.73 29.9198 1774.08 31.1378 1775.97 31.1378Z" fill="black"/>
</svg>
