<svg width="285" height="168" viewBox="0 0 285 168" fill="none" xmlns="http://www.w3.org/2000/svg">
<rect width="285" height="168" fill="white"/>
<path opacity="0.3" d="M24.9688 24L22.0625 16.4062H22.0156C22.0703 17.0078 22.0977 17.7227 22.0977 18.5508V24H21.1777V15.4336H22.6777L25.3906 22.5H25.4375L28.1738 15.4336H29.6621V24H28.666V18.4805C28.666 17.8477 28.6934 17.1602 28.748 16.418H28.7012L25.7715 24H24.9688ZM37.4023 24L36.3359 21.2754H32.9023L31.8477 24H30.8398L34.2266 15.3984H35.0645L38.4336 24H37.4023ZM36.0254 20.3789L35.0293 17.7246C34.9004 17.3887 34.7676 16.9766 34.6309 16.4883C34.5449 16.8633 34.4219 17.2754 34.2617 17.7246L33.2539 20.3789H36.0254ZM45.7988 24H44.627L41.5039 19.8457L40.6074 20.6426V24H39.6113V15.4336H40.6074V19.6816L44.4922 15.4336H45.6699L42.2246 19.1543L45.7988 24ZM51.7578 24H46.9824V15.4336H51.7578V16.3184H47.9785V19.0781H51.5293V19.957H47.9785V23.1094H51.7578V24ZM60.1309 15.4336V20.9766C60.1309 21.9531 59.8359 22.7207 59.2461 23.2793C58.6562 23.8379 57.8457 24.1172 56.8145 24.1172C55.7832 24.1172 54.9844 23.8359 54.418 23.2734C53.8555 22.7109 53.5742 21.9375 53.5742 20.9531V15.4336H54.5703V21.0234C54.5703 21.7383 54.7656 22.2871 55.1562 22.6699C55.5469 23.0527 56.1211 23.2441 56.8789 23.2441C57.6016 23.2441 58.1582 23.0527 58.5488 22.6699C58.9395 22.2832 59.1348 21.7305 59.1348 21.0117V15.4336H60.1309ZM67.8359 17.9297C67.8359 18.7969 67.5391 19.4648 66.9453 19.9336C66.3555 20.3984 65.5098 20.6309 64.4082 20.6309H63.4004V24H62.4043V15.4336H64.625C66.7656 15.4336 67.8359 16.2656 67.8359 17.9297ZM63.4004 19.7754H64.2969C65.1797 19.7754 65.8184 19.6328 66.2129 19.3477C66.6074 19.0625 66.8047 18.6055 66.8047 17.9766C66.8047 17.4102 66.6191 16.9883 66.248 16.7109C65.877 16.4336 65.2988 16.2949 64.5137 16.2949H63.4004V19.7754Z" fill="black"/>
<path opacity="0.3" d="M219.994 24H214.363V23.1621L216.619 20.8945C217.307 20.1992 217.76 19.7031 217.979 19.4062C218.197 19.1094 218.361 18.8203 218.471 18.5391C218.58 18.2578 218.635 17.9551 218.635 17.6309C218.635 17.1738 218.496 16.8125 218.219 16.5469C217.941 16.2773 217.557 16.1426 217.064 16.1426C216.709 16.1426 216.371 16.2012 216.051 16.3184C215.734 16.4355 215.381 16.6484 214.99 16.957L214.475 16.2949C215.264 15.6387 216.123 15.3105 217.053 15.3105C217.857 15.3105 218.488 15.5176 218.945 15.9316C219.402 16.3418 219.631 16.8945 219.631 17.5898C219.631 18.1328 219.479 18.6699 219.174 19.2012C218.869 19.7324 218.299 20.4043 217.463 21.2168L215.588 23.0508V23.0977H219.994V24ZM228.73 24L225.824 16.4062H225.777C225.832 17.0078 225.859 17.7227 225.859 18.5508V24H224.939V15.4336H226.439L229.152 22.5H229.199L231.936 15.4336H233.424V24H232.428V18.4805C232.428 17.8477 232.455 17.1602 232.51 16.418H232.463L229.533 24H228.73ZM235.779 24V15.4336H236.775V24H235.779ZM245.822 24H244.686L240.004 16.8105H239.957C240.02 17.6543 240.051 18.4277 240.051 19.1309V24H239.131V15.4336H240.256L244.926 22.5938H244.973C244.965 22.4883 244.947 22.1504 244.92 21.5801C244.893 21.0059 244.883 20.5957 244.891 20.3496V15.4336H245.822V24Z" fill="black"/>
<path opacity="0.3" d="M259 10V28" stroke="black"/>
<path opacity="0.3" d="M280.308 25L276.154 22.3333L272 25V13H280.308V25Z" stroke="black"/>
<path d="M27.9219 105.055C27.9219 106.008 27.5703 106.763 26.8672 107.32C26.1693 107.878 25.2396 108.156 24.0781 108.156C22.6823 108.156 21.612 108.003 20.8672 107.695V106.898C21.6901 107.247 22.7396 107.422 24.0156 107.422C24.9531 107.422 25.6953 107.208 26.2422 106.781C26.7943 106.349 27.0703 105.784 27.0703 105.086C27.0703 104.654 26.9792 104.297 26.7969 104.016C26.6146 103.729 26.3177 103.469 25.9062 103.234C25.4948 103 24.8906 102.747 24.0938 102.477C22.9271 102.076 22.1198 101.643 21.6719 101.18C21.2292 100.711 21.0078 100.089 21.0078 99.3125C21.0078 98.4583 21.3411 97.763 22.0078 97.2266C22.6797 96.6849 23.5417 96.4141 24.5938 96.4141C25.6667 96.4141 26.6745 96.6172 27.6172 97.0234L27.3281 97.7109C26.3802 97.3151 25.474 97.1172 24.6094 97.1172C23.7656 97.1172 23.0938 97.3125 22.5938 97.7031C22.0938 98.0938 21.8438 98.625 21.8438 99.2969C21.8438 99.7188 21.9193 100.065 22.0703 100.336C22.2266 100.607 22.4792 100.852 22.8281 101.07C23.1771 101.284 23.776 101.542 24.625 101.844C25.5156 102.151 26.1849 102.451 26.6328 102.742C27.0807 103.029 27.4062 103.357 27.6094 103.727C27.8177 104.091 27.9219 104.534 27.9219 105.055ZM33.5703 108.156C32.3359 108.156 31.3724 107.776 30.6797 107.016C29.9922 106.255 29.6484 105.19 29.6484 103.82C29.6484 102.466 29.9818 101.383 30.6484 100.57C31.3151 99.7526 32.2135 99.3438 33.3438 99.3438C34.3438 99.3438 35.1328 99.6927 35.7109 100.391C36.2891 101.089 36.5781 102.036 36.5781 103.234V103.859H30.4609C30.4714 105.026 30.7422 105.917 31.2734 106.531C31.8099 107.146 32.5755 107.453 33.5703 107.453C34.0547 107.453 34.4792 107.419 34.8438 107.352C35.2135 107.284 35.6797 107.138 36.2422 106.914V107.617C35.763 107.826 35.3203 107.966 34.9141 108.039C34.5078 108.117 34.0599 108.156 33.5703 108.156ZM33.3438 100.031C32.526 100.031 31.8698 100.302 31.375 100.844C30.8802 101.38 30.5911 102.156 30.5078 103.172H35.7578C35.7578 102.188 35.5443 101.419 35.1172 100.867C34.6901 100.31 34.099 100.031 33.3438 100.031ZM42.0312 99.3438C42.6458 99.3438 43.1771 99.4557 43.625 99.6797C44.0729 99.9036 44.474 100.286 44.8281 100.828H44.875C44.8438 100.172 44.8281 99.5286 44.8281 98.8984V95.8438H45.5938V108H45.0859L44.8906 106.703H44.8281C44.1823 107.672 43.2552 108.156 42.0469 108.156C40.875 108.156 39.9792 107.792 39.3594 107.062C38.7396 106.333 38.4297 105.271 38.4297 103.875C38.4297 102.406 38.737 101.284 39.3516 100.508C39.9661 99.7318 40.8594 99.3438 42.0312 99.3438ZM42.0312 100.047C41.1042 100.047 40.4062 100.372 39.9375 101.023C39.474 101.674 39.2422 102.62 39.2422 103.859C39.2422 106.266 40.1771 107.469 42.0469 107.469C43.0052 107.469 43.7083 107.19 44.1562 106.633C44.6042 106.076 44.8281 105.156 44.8281 103.875V103.742C44.8281 102.43 44.6068 101.487 44.1641 100.914C43.7266 100.336 43.0156 100.047 42.0312 100.047ZM53.2812 99.5078V105.008C53.2812 105.862 53.4609 106.484 53.8203 106.875C54.1797 107.26 54.737 107.453 55.4922 107.453C56.5026 107.453 57.2448 107.198 57.7188 106.688C58.1979 106.177 58.4375 105.346 58.4375 104.195V99.5078H59.2031V108H58.5469L58.4062 106.828H58.3594C57.8073 107.714 56.8255 108.156 55.4141 108.156C53.4818 108.156 52.5156 107.122 52.5156 105.055V99.5078H53.2812ZM64.2891 107.469C64.7786 107.469 65.2057 107.427 65.5703 107.344V107.969C65.1953 108.094 64.763 108.156 64.2734 108.156C63.5234 108.156 62.9688 107.956 62.6094 107.555C62.2552 107.154 62.0781 106.523 62.0781 105.664V100.18H60.8203V99.7266L62.0781 99.375L62.4688 97.4531H62.8672V99.5078H65.3594V100.18H62.8672V105.555C62.8672 106.206 62.9818 106.688 63.2109 107C63.4401 107.312 63.7995 107.469 64.2891 107.469ZM75.1953 108.156C73.888 108.156 72.9349 107.667 72.3359 106.688H72.2812L72.3047 107.344C72.3255 107.729 72.3359 108.151 72.3359 108.609V111.844H71.5625V99.5078H72.2188L72.3672 100.719H72.4141C72.9974 99.8021 73.9297 99.3438 75.2109 99.3438C76.3568 99.3438 77.2292 99.7214 77.8281 100.477C78.4323 101.227 78.7344 102.32 78.7344 103.758C78.7344 105.154 78.4167 106.237 77.7812 107.008C77.151 107.773 76.2891 108.156 75.1953 108.156ZM75.1797 107.469C76.0495 107.469 76.7214 107.146 77.1953 106.5C77.6745 105.854 77.9141 104.951 77.9141 103.789C77.9141 101.294 77.013 100.047 75.2109 100.047C74.2214 100.047 73.4948 100.32 73.0312 100.867C72.5677 101.409 72.3359 102.294 72.3359 103.523V103.773C72.3359 105.102 72.5573 106.049 73 106.617C73.4479 107.185 74.1745 107.469 75.1797 107.469ZM84.5234 108.156C83.2891 108.156 82.3255 107.776 81.6328 107.016C80.9453 106.255 80.6016 105.19 80.6016 103.82C80.6016 102.466 80.9349 101.383 81.6016 100.57C82.2682 99.7526 83.1667 99.3438 84.2969 99.3438C85.2969 99.3438 86.0859 99.6927 86.6641 100.391C87.2422 101.089 87.5312 102.036 87.5312 103.234V103.859H81.4141C81.4245 105.026 81.6953 105.917 82.2266 106.531C82.763 107.146 83.5286 107.453 84.5234 107.453C85.0078 107.453 85.4323 107.419 85.7969 107.352C86.1667 107.284 86.6328 107.138 87.1953 106.914V107.617C86.7161 107.826 86.2734 107.966 85.8672 108.039C85.4609 108.117 85.013 108.156 84.5234 108.156ZM84.2969 100.031C83.4792 100.031 82.8229 100.302 82.3281 100.844C81.8333 101.38 81.5443 102.156 81.4609 103.172H86.7109C86.7109 102.188 86.4974 101.419 86.0703 100.867C85.6432 100.31 85.0521 100.031 84.2969 100.031ZM93.2188 99.3438C93.5781 99.3438 93.9635 99.3802 94.375 99.4531L94.2266 100.195C93.8724 100.107 93.5052 100.062 93.125 100.062C92.401 100.062 91.8073 100.37 91.3438 100.984C90.8802 101.599 90.6484 102.375 90.6484 103.312V108H89.875V99.5078H90.5312L90.6094 101.039H90.6641C91.013 100.414 91.3854 99.9766 91.7812 99.7266C92.1771 99.4714 92.6562 99.3438 93.2188 99.3438ZM101.375 105.789C101.375 106.549 101.086 107.135 100.508 107.547C99.9297 107.953 99.1094 108.156 98.0469 108.156C96.9115 108.156 96.0104 107.982 95.3438 107.633V106.797C96.1979 107.224 97.099 107.438 98.0469 107.438C98.8854 107.438 99.5208 107.299 99.9531 107.023C100.391 106.742 100.609 106.37 100.609 105.906C100.609 105.479 100.435 105.12 100.086 104.828C99.7422 104.536 99.1745 104.25 98.3828 103.969C97.5339 103.661 96.9375 103.398 96.5938 103.18C96.25 102.956 95.9896 102.706 95.8125 102.43C95.6406 102.148 95.5547 101.807 95.5547 101.406C95.5547 100.771 95.8203 100.268 96.3516 99.8984C96.888 99.5286 97.6354 99.3438 98.5938 99.3438C99.5104 99.3438 100.38 99.5156 101.203 99.8594L100.914 100.562C100.081 100.219 99.3073 100.047 98.5938 100.047C97.901 100.047 97.3516 100.161 96.9453 100.391C96.5391 100.62 96.3359 100.938 96.3359 101.344C96.3359 101.786 96.4922 102.141 96.8047 102.406C97.1224 102.672 97.7396 102.969 98.6562 103.297C99.4219 103.573 99.9792 103.823 100.328 104.047C100.677 104.266 100.938 104.516 101.109 104.797C101.286 105.078 101.375 105.409 101.375 105.789ZM107.195 108.156C105.888 108.156 104.935 107.667 104.336 106.688H104.281L104.305 107.344C104.326 107.729 104.336 108.151 104.336 108.609V111.844H103.562V99.5078H104.219L104.367 100.719H104.414C104.997 99.8021 105.93 99.3438 107.211 99.3438C108.357 99.3438 109.229 99.7214 109.828 100.477C110.432 101.227 110.734 102.32 110.734 103.758C110.734 105.154 110.417 106.237 109.781 107.008C109.151 107.773 108.289 108.156 107.195 108.156ZM107.18 107.469C108.049 107.469 108.721 107.146 109.195 106.5C109.674 105.854 109.914 104.951 109.914 103.789C109.914 101.294 109.013 100.047 107.211 100.047C106.221 100.047 105.495 100.32 105.031 100.867C104.568 101.409 104.336 102.294 104.336 103.523V103.773C104.336 105.102 104.557 106.049 105 106.617C105.448 107.185 106.174 107.469 107.18 107.469ZM113.867 108H113.094V99.5078H113.867V108ZM112.984 97.1484C112.984 96.6484 113.148 96.3984 113.477 96.3984C113.638 96.3984 113.763 96.4635 113.852 96.5938C113.945 96.724 113.992 96.9089 113.992 97.1484C113.992 97.3828 113.945 97.5677 113.852 97.7031C113.763 97.8385 113.638 97.9062 113.477 97.9062C113.148 97.9062 112.984 97.6536 112.984 97.1484ZM120.109 108.156C118.896 108.156 117.945 107.773 117.258 107.008C116.57 106.242 116.227 105.174 116.227 103.805C116.227 102.398 116.583 101.305 117.297 100.523C118.01 99.737 118.987 99.3438 120.227 99.3438C120.961 99.3438 121.664 99.4714 122.336 99.7266L122.125 100.414C121.391 100.169 120.753 100.047 120.211 100.047C119.169 100.047 118.38 100.37 117.844 101.016C117.307 101.656 117.039 102.581 117.039 103.789C117.039 104.935 117.307 105.833 117.844 106.484C118.38 107.13 119.13 107.453 120.094 107.453C120.865 107.453 121.581 107.315 122.242 107.039V107.758C121.701 108.023 120.99 108.156 120.109 108.156ZM125.102 108H124.328V99.5078H125.102V108ZM124.219 97.1484C124.219 96.6484 124.383 96.3984 124.711 96.3984C124.872 96.3984 124.997 96.4635 125.086 96.5938C125.18 96.724 125.227 96.9089 125.227 97.1484C125.227 97.3828 125.18 97.5677 125.086 97.7031C124.997 97.8385 124.872 97.9062 124.711 97.9062C124.383 97.9062 124.219 97.6536 124.219 97.1484ZM133.109 108L132.914 106.656H132.852C132.424 107.203 131.984 107.591 131.531 107.82C131.083 108.044 130.552 108.156 129.938 108.156C129.104 108.156 128.456 107.943 127.992 107.516C127.529 107.089 127.297 106.497 127.297 105.742C127.297 104.914 127.641 104.271 128.328 103.812C129.021 103.354 130.021 103.112 131.328 103.086L132.945 103.039V102.477C132.945 101.669 132.781 101.06 132.453 100.648C132.125 100.237 131.596 100.031 130.867 100.031C130.081 100.031 129.266 100.25 128.422 100.688L128.133 100.016C129.065 99.5781 129.987 99.3594 130.898 99.3594C131.831 99.3594 132.526 99.6016 132.984 100.086C133.448 100.57 133.68 101.326 133.68 102.352V108H133.109ZM129.984 107.453C130.891 107.453 131.604 107.195 132.125 106.68C132.651 106.159 132.914 105.438 132.914 104.516V103.68L131.43 103.742C130.237 103.799 129.385 103.987 128.875 104.305C128.37 104.617 128.117 105.107 128.117 105.773C128.117 106.305 128.279 106.719 128.602 107.016C128.93 107.307 129.391 107.453 129.984 107.453ZM138.68 107.469C139.169 107.469 139.596 107.427 139.961 107.344V107.969C139.586 108.094 139.154 108.156 138.664 108.156C137.914 108.156 137.359 107.956 137 107.555C136.646 107.154 136.469 106.523 136.469 105.664V100.18H135.211V99.7266L136.469 99.375L136.859 97.4531H137.258V99.5078H139.75V100.18H137.258V105.555C137.258 106.206 137.372 106.688 137.602 107C137.831 107.312 138.19 107.469 138.68 107.469ZM142.57 108H141.797V99.5078H142.57V108ZM141.688 97.1484C141.688 96.6484 141.852 96.3984 142.18 96.3984C142.341 96.3984 142.466 96.4635 142.555 96.5938C142.648 96.724 142.695 96.9089 142.695 97.1484C142.695 97.3828 142.648 97.5677 142.555 97.7031C142.466 97.8385 142.341 97.9062 142.18 97.9062C141.852 97.9062 141.688 97.6536 141.688 97.1484ZM150.688 105.789C150.688 106.549 150.398 107.135 149.82 107.547C149.242 107.953 148.422 108.156 147.359 108.156C146.224 108.156 145.323 107.982 144.656 107.633V106.797C145.51 107.224 146.411 107.438 147.359 107.438C148.198 107.438 148.833 107.299 149.266 107.023C149.703 106.742 149.922 106.37 149.922 105.906C149.922 105.479 149.747 105.12 149.398 104.828C149.055 104.536 148.487 104.25 147.695 103.969C146.846 103.661 146.25 103.398 145.906 103.18C145.562 102.956 145.302 102.706 145.125 102.43C144.953 102.148 144.867 101.807 144.867 101.406C144.867 100.771 145.133 100.268 145.664 99.8984C146.201 99.5286 146.948 99.3438 147.906 99.3438C148.823 99.3438 149.693 99.5156 150.516 99.8594L150.227 100.562C149.393 100.219 148.62 100.047 147.906 100.047C147.214 100.047 146.664 100.161 146.258 100.391C145.852 100.62 145.648 100.938 145.648 101.344C145.648 101.786 145.805 102.141 146.117 102.406C146.435 102.672 147.052 102.969 147.969 103.297C148.734 103.573 149.292 103.823 149.641 104.047C149.99 104.266 150.25 104.516 150.422 104.797C150.599 105.078 150.688 105.409 150.688 105.789ZM157.703 99.5078V105.008C157.703 105.862 157.883 106.484 158.242 106.875C158.602 107.26 159.159 107.453 159.914 107.453C160.924 107.453 161.667 107.198 162.141 106.688C162.62 106.177 162.859 105.346 162.859 104.195V99.5078H163.625V108H162.969L162.828 106.828H162.781C162.229 107.714 161.247 108.156 159.836 108.156C157.904 108.156 156.938 107.122 156.938 105.055V99.5078H157.703ZM172.391 108V102.492C172.391 101.638 172.211 101.018 171.852 100.633C171.492 100.242 170.935 100.047 170.18 100.047C169.164 100.047 168.419 100.305 167.945 100.82C167.477 101.331 167.242 102.161 167.242 103.312V108H166.469V99.5078H167.125L167.273 100.672H167.32C167.872 99.7865 168.854 99.3438 170.266 99.3438C172.193 99.3438 173.156 100.378 173.156 102.445V108H172.391ZM179.016 99.3438C179.63 99.3438 180.161 99.4557 180.609 99.6797C181.057 99.9036 181.458 100.286 181.812 100.828H181.859C181.828 100.172 181.812 99.5286 181.812 98.8984V95.8438H182.578V108H182.07L181.875 106.703H181.812C181.167 107.672 180.24 108.156 179.031 108.156C177.859 108.156 176.964 107.792 176.344 107.062C175.724 106.333 175.414 105.271 175.414 103.875C175.414 102.406 175.721 101.284 176.336 100.508C176.951 99.7318 177.844 99.3438 179.016 99.3438ZM179.016 100.047C178.089 100.047 177.391 100.372 176.922 101.023C176.458 101.674 176.227 102.62 176.227 103.859C176.227 106.266 177.161 107.469 179.031 107.469C179.99 107.469 180.693 107.19 181.141 106.633C181.589 106.076 181.812 105.156 181.812 103.875V103.742C181.812 102.43 181.591 101.487 181.148 100.914C180.711 100.336 180 100.047 179.016 100.047ZM188.867 108.156C187.633 108.156 186.669 107.776 185.977 107.016C185.289 106.255 184.945 105.19 184.945 103.82C184.945 102.466 185.279 101.383 185.945 100.57C186.612 99.7526 187.51 99.3438 188.641 99.3438C189.641 99.3438 190.43 99.6927 191.008 100.391C191.586 101.089 191.875 102.036 191.875 103.234V103.859H185.758C185.768 105.026 186.039 105.917 186.57 106.531C187.107 107.146 187.872 107.453 188.867 107.453C189.352 107.453 189.776 107.419 190.141 107.352C190.51 107.284 190.977 107.138 191.539 106.914V107.617C191.06 107.826 190.617 107.966 190.211 108.039C189.805 108.117 189.357 108.156 188.867 108.156ZM188.641 100.031C187.823 100.031 187.167 100.302 186.672 100.844C186.177 101.38 185.888 102.156 185.805 103.172H191.055C191.055 102.188 190.841 101.419 190.414 100.867C189.987 100.31 189.396 100.031 188.641 100.031ZM205.398 103.742C205.398 105.128 205.062 106.211 204.391 106.992C203.719 107.768 202.792 108.156 201.609 108.156C200.865 108.156 200.208 107.977 199.641 107.617C199.073 107.258 198.638 106.742 198.336 106.07C198.034 105.398 197.883 104.622 197.883 103.742C197.883 102.357 198.219 101.279 198.891 100.508C199.562 99.7318 200.484 99.3438 201.656 99.3438C202.823 99.3438 203.737 99.737 204.398 100.523C205.065 101.305 205.398 102.378 205.398 103.742ZM198.695 103.742C198.695 104.909 198.951 105.82 199.461 106.477C199.977 107.128 200.703 107.453 201.641 107.453C202.578 107.453 203.302 107.128 203.812 106.477C204.328 105.82 204.586 104.909 204.586 103.742C204.586 102.57 204.326 101.661 203.805 101.016C203.289 100.37 202.562 100.047 201.625 100.047C200.688 100.047 199.964 100.37 199.453 101.016C198.948 101.656 198.695 102.565 198.695 103.742ZM218.359 108V102.43C218.359 101.602 218.198 100.997 217.875 100.617C217.552 100.237 217.057 100.047 216.391 100.047C215.521 100.047 214.878 100.286 214.461 100.766C214.044 101.245 213.836 101.997 213.836 103.023V108H213.047V102.195C213.047 100.763 212.391 100.047 211.078 100.047C210.188 100.047 209.539 100.307 209.133 100.828C208.727 101.344 208.523 102.172 208.523 103.312V108H207.75V99.5078H208.391L208.555 100.672H208.602C208.836 100.25 209.169 99.9245 209.602 99.6953C210.034 99.4609 210.51 99.3438 211.031 99.3438C212.37 99.3438 213.229 99.8464 213.609 100.852H213.641C213.917 100.367 214.286 99.9948 214.75 99.7344C215.219 99.474 215.75 99.3438 216.344 99.3438C217.271 99.3438 217.966 99.5911 218.43 100.086C218.893 100.581 219.125 101.367 219.125 102.445V108H218.359ZM227.797 108V102.492C227.797 101.638 227.617 101.018 227.258 100.633C226.898 100.242 226.341 100.047 225.586 100.047C224.57 100.047 223.826 100.305 223.352 100.82C222.883 101.331 222.648 102.161 222.648 103.312V108H221.875V99.5078H222.531L222.68 100.672H222.727C223.279 99.7865 224.26 99.3438 225.672 99.3438C227.599 99.3438 228.562 100.378 228.562 102.445V108H227.797ZM232.086 108H231.312V99.5078H232.086V108ZM231.203 97.1484C231.203 96.6484 231.367 96.3984 231.695 96.3984C231.857 96.3984 231.982 96.4635 232.07 96.5938C232.164 96.724 232.211 96.9089 232.211 97.1484C232.211 97.3828 232.164 97.5677 232.07 97.7031C231.982 97.8385 231.857 97.9062 231.695 97.9062C231.367 97.9062 231.203 97.6536 231.203 97.1484ZM240.203 105.789C240.203 106.549 239.914 107.135 239.336 107.547C238.758 107.953 237.938 108.156 236.875 108.156C235.74 108.156 234.839 107.982 234.172 107.633V106.797C235.026 107.224 235.927 107.438 236.875 107.438C237.714 107.438 238.349 107.299 238.781 107.023C239.219 106.742 239.438 106.37 239.438 105.906C239.438 105.479 239.263 105.12 238.914 104.828C238.57 104.536 238.003 104.25 237.211 103.969C236.362 103.661 235.766 103.398 235.422 103.18C235.078 102.956 234.818 102.706 234.641 102.43C234.469 102.148 234.383 101.807 234.383 101.406C234.383 100.771 234.648 100.268 235.18 99.8984C235.716 99.5286 236.464 99.3438 237.422 99.3438C238.339 99.3438 239.208 99.5156 240.031 99.8594L239.742 100.562C238.909 100.219 238.135 100.047 237.422 100.047C236.729 100.047 236.18 100.161 235.773 100.391C235.367 100.62 235.164 100.938 235.164 101.344C235.164 101.786 235.32 102.141 235.633 102.406C235.951 102.672 236.568 102.969 237.484 103.297C238.25 103.573 238.807 103.823 239.156 104.047C239.505 104.266 239.766 104.516 239.938 104.797C240.115 105.078 240.203 105.409 240.203 105.789ZM247.32 108H246.547V99.5078H247.32V108ZM246.438 97.1484C246.438 96.6484 246.602 96.3984 246.93 96.3984C247.091 96.3984 247.216 96.4635 247.305 96.5938C247.398 96.724 247.445 96.9089 247.445 97.1484C247.445 97.3828 247.398 97.5677 247.305 97.7031C247.216 97.8385 247.091 97.9062 246.93 97.9062C246.602 97.9062 246.438 97.6536 246.438 97.1484ZM255.438 105.789C255.438 106.549 255.148 107.135 254.57 107.547C253.992 107.953 253.172 108.156 252.109 108.156C250.974 108.156 250.073 107.982 249.406 107.633V106.797C250.26 107.224 251.161 107.438 252.109 107.438C252.948 107.438 253.583 107.299 254.016 107.023C254.453 106.742 254.672 106.37 254.672 105.906C254.672 105.479 254.497 105.12 254.148 104.828C253.805 104.536 253.237 104.25 252.445 103.969C251.596 103.661 251 103.398 250.656 103.18C250.312 102.956 250.052 102.706 249.875 102.43C249.703 102.148 249.617 101.807 249.617 101.406C249.617 100.771 249.883 100.268 250.414 99.8984C250.951 99.5286 251.698 99.3438 252.656 99.3438C253.573 99.3438 254.443 99.5156 255.266 99.8594L254.977 100.562C254.143 100.219 253.37 100.047 252.656 100.047C251.964 100.047 251.414 100.161 251.008 100.391C250.602 100.62 250.398 100.938 250.398 101.344C250.398 101.786 250.555 102.141 250.867 102.406C251.185 102.672 251.802 102.969 252.719 103.297C253.484 103.573 254.042 103.823 254.391 104.047C254.74 104.266 255 104.516 255.172 104.797C255.349 105.078 255.438 105.409 255.438 105.789ZM259.867 107.469C260.357 107.469 260.784 107.427 261.148 107.344V107.969C260.773 108.094 260.341 108.156 259.852 108.156C259.102 108.156 258.547 107.956 258.188 107.555C257.833 107.154 257.656 106.523 257.656 105.664V100.18H256.398V99.7266L257.656 99.375L258.047 97.4531H258.445V99.5078H260.938V100.18H258.445V105.555C258.445 106.206 258.56 106.688 258.789 107C259.018 107.312 259.378 107.469 259.867 107.469ZM266.414 108.156C265.18 108.156 264.216 107.776 263.523 107.016C262.836 106.255 262.492 105.19 262.492 103.82C262.492 102.466 262.826 101.383 263.492 100.57C264.159 99.7526 265.057 99.3438 266.188 99.3438C267.188 99.3438 267.977 99.6927 268.555 100.391C269.133 101.089 269.422 102.036 269.422 103.234V103.859H263.305C263.315 105.026 263.586 105.917 264.117 106.531C264.654 107.146 265.419 107.453 266.414 107.453C266.898 107.453 267.323 107.419 267.688 107.352C268.057 107.284 268.523 107.138 269.086 106.914V107.617C268.607 107.826 268.164 107.966 267.758 108.039C267.352 108.117 266.904 108.156 266.414 108.156ZM266.188 100.031C265.37 100.031 264.714 100.302 264.219 100.844C263.724 101.38 263.435 102.156 263.352 103.172H268.602C268.602 102.188 268.388 101.419 267.961 100.867C267.534 100.31 266.943 100.031 266.188 100.031ZM27.3438 132V126.492C27.3438 125.638 27.1641 125.018 26.8047 124.633C26.4453 124.242 25.888 124.047 25.1328 124.047C24.1172 124.047 23.3724 124.305 22.8984 124.82C22.4297 125.331 22.1953 126.161 22.1953 127.312V132H21.4219V123.508H22.0781L22.2266 124.672H22.2734C22.8255 123.786 23.8073 123.344 25.2188 123.344C27.1458 123.344 28.1094 124.378 28.1094 126.445V132H27.3438ZM36.0156 132L35.8203 130.656H35.7578C35.3307 131.203 34.8906 131.591 34.4375 131.82C33.9896 132.044 33.4583 132.156 32.8438 132.156C32.0104 132.156 31.362 131.943 30.8984 131.516C30.4349 131.089 30.2031 130.497 30.2031 129.742C30.2031 128.914 30.5469 128.271 31.2344 127.812C31.9271 127.354 32.9271 127.112 34.2344 127.086L35.8516 127.039V126.477C35.8516 125.669 35.6875 125.06 35.3594 124.648C35.0312 124.237 34.5026 124.031 33.7734 124.031C32.987 124.031 32.1719 124.25 31.3281 124.688L31.0391 124.016C31.9714 123.578 32.8932 123.359 33.8047 123.359C34.737 123.359 35.4323 123.602 35.8906 124.086C36.3542 124.57 36.5859 125.326 36.5859 126.352V132H36.0156ZM32.8906 131.453C33.7969 131.453 34.5104 131.195 35.0312 130.68C35.5573 130.159 35.8203 129.438 35.8203 128.516V127.68L34.3359 127.742C33.1432 127.799 32.2917 127.987 31.7812 128.305C31.276 128.617 31.0234 129.107 31.0234 129.773C31.0234 130.305 31.1849 130.719 31.5078 131.016C31.8359 131.307 32.2969 131.453 32.8906 131.453ZM41.5859 131.469C42.0755 131.469 42.5026 131.427 42.8672 131.344V131.969C42.4922 132.094 42.0599 132.156 41.5703 132.156C40.8203 132.156 40.2656 131.956 39.9062 131.555C39.5521 131.154 39.375 130.523 39.375 129.664V124.18H38.1172V123.727L39.375 123.375L39.7656 121.453H40.1641V123.508H42.6562V124.18H40.1641V129.555C40.1641 130.206 40.2786 130.688 40.5078 131C40.737 131.312 41.0964 131.469 41.5859 131.469ZM45.375 123.508V129.008C45.375 129.862 45.5547 130.484 45.9141 130.875C46.2734 131.26 46.8307 131.453 47.5859 131.453C48.5964 131.453 49.3385 131.198 49.8125 130.688C50.2917 130.177 50.5312 129.346 50.5312 128.195V123.508H51.2969V132H50.6406L50.5 130.828H50.4531C49.901 131.714 48.9193 132.156 47.5078 132.156C45.5755 132.156 44.6094 131.122 44.6094 129.055V123.508H45.375ZM59.4062 129.789C59.4062 130.549 59.1172 131.135 58.5391 131.547C57.9609 131.953 57.1406 132.156 56.0781 132.156C54.9427 132.156 54.0417 131.982 53.375 131.633V130.797C54.2292 131.224 55.1302 131.438 56.0781 131.438C56.9167 131.438 57.5521 131.299 57.9844 131.023C58.4219 130.742 58.6406 130.37 58.6406 129.906C58.6406 129.479 58.4661 129.12 58.1172 128.828C57.7734 128.536 57.2057 128.25 56.4141 127.969C55.5651 127.661 54.9688 127.398 54.625 127.18C54.2812 126.956 54.0208 126.706 53.8438 126.43C53.6719 126.148 53.5859 125.807 53.5859 125.406C53.5859 124.771 53.8516 124.268 54.3828 123.898C54.9193 123.529 55.6667 123.344 56.625 123.344C57.5417 123.344 58.4115 123.516 59.2344 123.859L58.9453 124.562C58.112 124.219 57.3385 124.047 56.625 124.047C55.9323 124.047 55.3828 124.161 54.9766 124.391C54.5703 124.62 54.3672 124.938 54.3672 125.344C54.3672 125.786 54.5234 126.141 54.8359 126.406C55.1536 126.672 55.7708 126.969 56.6875 127.297C57.4531 127.573 58.0104 127.823 58.3594 128.047C58.7083 128.266 58.9688 128.516 59.1406 128.797C59.3177 129.078 59.4062 129.409 59.4062 129.789ZM69.1797 132.156C67.9453 132.156 66.9818 131.776 66.2891 131.016C65.6016 130.255 65.2578 129.19 65.2578 127.82C65.2578 126.466 65.5911 125.383 66.2578 124.57C66.9245 123.753 67.8229 123.344 68.9531 123.344C69.9531 123.344 70.7422 123.693 71.3203 124.391C71.8984 125.089 72.1875 126.036 72.1875 127.234V127.859H66.0703C66.0807 129.026 66.3516 129.917 66.8828 130.531C67.4193 131.146 68.1849 131.453 69.1797 131.453C69.6641 131.453 70.0885 131.419 70.4531 131.352C70.8229 131.284 71.2891 131.138 71.8516 130.914V131.617C71.3724 131.826 70.9297 131.966 70.5234 132.039C70.1172 132.117 69.6693 132.156 69.1797 132.156ZM68.9531 124.031C68.1354 124.031 67.4792 124.302 66.9844 124.844C66.4896 125.38 66.2005 126.156 66.1172 127.172H71.3672C71.3672 126.188 71.1536 125.419 70.7266 124.867C70.2995 124.31 69.7083 124.031 68.9531 124.031ZM77.875 123.344C78.2344 123.344 78.6198 123.38 79.0312 123.453L78.8828 124.195C78.5286 124.107 78.1615 124.062 77.7812 124.062C77.0573 124.062 76.4635 124.37 76 124.984C75.5365 125.599 75.3047 126.375 75.3047 127.312V132H74.5312V123.508H75.1875L75.2656 125.039H75.3203C75.6693 124.414 76.0417 123.977 76.4375 123.727C76.8333 123.471 77.3125 123.344 77.875 123.344ZM84.1094 123.344C84.4688 123.344 84.8542 123.38 85.2656 123.453L85.1172 124.195C84.763 124.107 84.3958 124.062 84.0156 124.062C83.2917 124.062 82.6979 124.37 82.2344 124.984C81.7708 125.599 81.5391 126.375 81.5391 127.312V132H80.7656V123.508H81.4219L81.5 125.039H81.5547C81.9036 124.414 82.276 123.977 82.6719 123.727C83.0677 123.471 83.5469 123.344 84.1094 123.344ZM94.0234 127.742C94.0234 129.128 93.6875 130.211 93.0156 130.992C92.3438 131.768 91.4167 132.156 90.2344 132.156C89.4896 132.156 88.8333 131.977 88.2656 131.617C87.6979 131.258 87.263 130.742 86.9609 130.07C86.6589 129.398 86.5078 128.622 86.5078 127.742C86.5078 126.357 86.8438 125.279 87.5156 124.508C88.1875 123.732 89.1094 123.344 90.2812 123.344C91.4479 123.344 92.362 123.737 93.0234 124.523C93.6901 125.305 94.0234 126.378 94.0234 127.742ZM87.3203 127.742C87.3203 128.909 87.5755 129.82 88.0859 130.477C88.6016 131.128 89.3281 131.453 90.2656 131.453C91.2031 131.453 91.9271 131.128 92.4375 130.477C92.9531 129.82 93.2109 128.909 93.2109 127.742C93.2109 126.57 92.9505 125.661 92.4297 125.016C91.9141 124.37 91.1875 124.047 90.25 124.047C89.3125 124.047 88.5885 124.37 88.0781 125.016C87.5729 125.656 87.3203 126.565 87.3203 127.742ZM99.7188 123.344C100.078 123.344 100.464 123.38 100.875 123.453L100.727 124.195C100.372 124.107 100.005 124.062 99.625 124.062C98.901 124.062 98.3073 124.37 97.8438 124.984C97.3802 125.599 97.1484 126.375 97.1484 127.312V132H96.375V123.508H97.0312L97.1094 125.039H97.1641C97.513 124.414 97.8854 123.977 98.2812 123.727C98.6771 123.471 99.1562 123.344 99.7188 123.344ZM112.031 129.789C112.031 130.549 111.742 131.135 111.164 131.547C110.586 131.953 109.766 132.156 108.703 132.156C107.568 132.156 106.667 131.982 106 131.633V130.797C106.854 131.224 107.755 131.438 108.703 131.438C109.542 131.438 110.177 131.299 110.609 131.023C111.047 130.742 111.266 130.37 111.266 129.906C111.266 129.479 111.091 129.12 110.742 128.828C110.398 128.536 109.831 128.25 109.039 127.969C108.19 127.661 107.594 127.398 107.25 127.18C106.906 126.956 106.646 126.706 106.469 126.43C106.297 126.148 106.211 125.807 106.211 125.406C106.211 124.771 106.477 124.268 107.008 123.898C107.544 123.529 108.292 123.344 109.25 123.344C110.167 123.344 111.036 123.516 111.859 123.859L111.57 124.562C110.737 124.219 109.964 124.047 109.25 124.047C108.557 124.047 108.008 124.161 107.602 124.391C107.195 124.62 106.992 124.938 106.992 125.344C106.992 125.786 107.148 126.141 107.461 126.406C107.779 126.672 108.396 126.969 109.312 127.297C110.078 127.573 110.635 127.823 110.984 128.047C111.333 128.266 111.594 128.516 111.766 128.797C111.943 129.078 112.031 129.409 112.031 129.789ZM114.992 132H114.219V123.508H114.992V132ZM114.109 121.148C114.109 120.648 114.273 120.398 114.602 120.398C114.763 120.398 114.888 120.464 114.977 120.594C115.07 120.724 115.117 120.909 115.117 121.148C115.117 121.383 115.07 121.568 114.977 121.703C114.888 121.839 114.763 121.906 114.602 121.906C114.273 121.906 114.109 121.654 114.109 121.148ZM120.086 131.469C120.576 131.469 121.003 131.427 121.367 131.344V131.969C120.992 132.094 120.56 132.156 120.07 132.156C119.32 132.156 118.766 131.956 118.406 131.555C118.052 131.154 117.875 130.523 117.875 129.664V124.18H116.617V123.727L117.875 123.375L118.266 121.453H118.664V123.508H121.156V124.18H118.664V129.555C118.664 130.206 118.779 130.688 119.008 131C119.237 131.312 119.596 131.469 120.086 131.469ZM129.219 132L125.938 123.508H126.734L128.93 129.281C129.221 130.021 129.44 130.667 129.586 131.219H129.633C129.846 130.51 130.065 129.859 130.289 129.266L132.484 123.508H133.281L130 132H129.219ZM141.727 127.742C141.727 129.128 141.391 130.211 140.719 130.992C140.047 131.768 139.12 132.156 137.938 132.156C137.193 132.156 136.536 131.977 135.969 131.617C135.401 131.258 134.966 130.742 134.664 130.07C134.362 129.398 134.211 128.622 134.211 127.742C134.211 126.357 134.547 125.279 135.219 124.508C135.891 123.732 136.812 123.344 137.984 123.344C139.151 123.344 140.065 123.737 140.727 124.523C141.393 125.305 141.727 126.378 141.727 127.742ZM135.023 127.742C135.023 128.909 135.279 129.82 135.789 130.477C136.305 131.128 137.031 131.453 137.969 131.453C138.906 131.453 139.63 131.128 140.141 130.477C140.656 129.82 140.914 128.909 140.914 127.742C140.914 126.57 140.654 125.661 140.133 125.016C139.617 124.37 138.891 124.047 137.953 124.047C137.016 124.047 136.292 124.37 135.781 125.016C135.276 125.656 135.023 126.565 135.023 127.742ZM144.852 132H144.078V119.844H144.852V132ZM148.375 123.508V129.008C148.375 129.862 148.555 130.484 148.914 130.875C149.273 131.26 149.831 131.453 150.586 131.453C151.596 131.453 152.339 131.198 152.812 130.688C153.292 130.177 153.531 129.346 153.531 128.195V123.508H154.297V132H153.641L153.5 130.828H153.453C152.901 131.714 151.919 132.156 150.508 132.156C148.576 132.156 147.609 131.122 147.609 129.055V123.508H148.375ZM160.773 132.156C159.466 132.156 158.513 131.667 157.914 130.688H157.859L157.883 131.344C157.904 131.729 157.914 132.151 157.914 132.609V135.844H157.141V123.508H157.797L157.945 124.719H157.992C158.576 123.802 159.508 123.344 160.789 123.344C161.935 123.344 162.807 123.721 163.406 124.477C164.01 125.227 164.312 126.32 164.312 127.758C164.312 129.154 163.995 130.237 163.359 131.008C162.729 131.773 161.867 132.156 160.773 132.156ZM160.758 131.469C161.628 131.469 162.299 131.146 162.773 130.5C163.253 129.854 163.492 128.951 163.492 127.789C163.492 125.294 162.591 124.047 160.789 124.047C159.799 124.047 159.073 124.32 158.609 124.867C158.146 125.409 157.914 126.294 157.914 127.523V127.773C157.914 129.102 158.135 130.049 158.578 130.617C159.026 131.185 159.753 131.469 160.758 131.469ZM168.914 131.469C169.404 131.469 169.831 131.427 170.195 131.344V131.969C169.82 132.094 169.388 132.156 168.898 132.156C168.148 132.156 167.594 131.956 167.234 131.555C166.88 131.154 166.703 130.523 166.703 129.664V124.18H165.445V123.727L166.703 123.375L167.094 121.453H167.492V123.508H169.984V124.18H167.492V129.555C167.492 130.206 167.607 130.688 167.836 131C168.065 131.312 168.424 131.469 168.914 131.469ZM177.188 132L176.992 130.656H176.93C176.503 131.203 176.062 131.591 175.609 131.82C175.161 132.044 174.63 132.156 174.016 132.156C173.182 132.156 172.534 131.943 172.07 131.516C171.607 131.089 171.375 130.497 171.375 129.742C171.375 128.914 171.719 128.271 172.406 127.812C173.099 127.354 174.099 127.112 175.406 127.086L177.023 127.039V126.477C177.023 125.669 176.859 125.06 176.531 124.648C176.203 124.237 175.674 124.031 174.945 124.031C174.159 124.031 173.344 124.25 172.5 124.688L172.211 124.016C173.143 123.578 174.065 123.359 174.977 123.359C175.909 123.359 176.604 123.602 177.062 124.086C177.526 124.57 177.758 125.326 177.758 126.352V132H177.188ZM174.062 131.453C174.969 131.453 175.682 131.195 176.203 130.68C176.729 130.159 176.992 129.438 176.992 128.516V127.68L175.508 127.742C174.315 127.799 173.464 127.987 172.953 128.305C172.448 128.617 172.195 129.107 172.195 129.773C172.195 130.305 172.357 130.719 172.68 131.016C173.008 131.307 173.469 131.453 174.062 131.453ZM182.758 131.469C183.247 131.469 183.674 131.427 184.039 131.344V131.969C183.664 132.094 183.232 132.156 182.742 132.156C181.992 132.156 181.438 131.956 181.078 131.555C180.724 131.154 180.547 130.523 180.547 129.664V124.18H179.289V123.727L180.547 123.375L180.938 121.453H181.336V123.508H183.828V124.18H181.336V129.555C181.336 130.206 181.451 130.688 181.68 131C181.909 131.312 182.268 131.469 182.758 131.469ZM189.305 132.156C188.07 132.156 187.107 131.776 186.414 131.016C185.727 130.255 185.383 129.19 185.383 127.82C185.383 126.466 185.716 125.383 186.383 124.57C187.049 123.753 187.948 123.344 189.078 123.344C190.078 123.344 190.867 123.693 191.445 124.391C192.023 125.089 192.312 126.036 192.312 127.234V127.859H186.195C186.206 129.026 186.477 129.917 187.008 130.531C187.544 131.146 188.31 131.453 189.305 131.453C189.789 131.453 190.214 131.419 190.578 131.352C190.948 131.284 191.414 131.138 191.977 130.914V131.617C191.497 131.826 191.055 131.966 190.648 132.039C190.242 132.117 189.794 132.156 189.305 132.156ZM189.078 124.031C188.26 124.031 187.604 124.302 187.109 124.844C186.615 125.38 186.326 126.156 186.242 127.172H191.492C191.492 126.188 191.279 125.419 190.852 124.867C190.424 124.31 189.833 124.031 189.078 124.031ZM205.266 132V126.43C205.266 125.602 205.104 124.997 204.781 124.617C204.458 124.237 203.964 124.047 203.297 124.047C202.427 124.047 201.784 124.286 201.367 124.766C200.951 125.245 200.742 125.997 200.742 127.023V132H199.953V126.195C199.953 124.763 199.297 124.047 197.984 124.047C197.094 124.047 196.445 124.307 196.039 124.828C195.633 125.344 195.43 126.172 195.43 127.312V132H194.656V123.508H195.297L195.461 124.672H195.508C195.742 124.25 196.076 123.924 196.508 123.695C196.94 123.461 197.417 123.344 197.938 123.344C199.276 123.344 200.135 123.846 200.516 124.852H200.547C200.823 124.367 201.193 123.995 201.656 123.734C202.125 123.474 202.656 123.344 203.25 123.344C204.177 123.344 204.872 123.591 205.336 124.086C205.799 124.581 206.031 125.367 206.031 126.445V132H205.266ZM26.5781 156L26.3828 154.656H26.3203C25.8932 155.203 25.4531 155.591 25 155.82C24.5521 156.044 24.0208 156.156 23.4062 156.156C22.5729 156.156 21.9245 155.943 21.4609 155.516C20.9974 155.089 20.7656 154.497 20.7656 153.742C20.7656 152.914 21.1094 152.271 21.7969 151.812C22.4896 151.354 23.4896 151.112 24.7969 151.086L26.4141 151.039V150.477C26.4141 149.669 26.25 149.06 25.9219 148.648C25.5938 148.237 25.0651 148.031 24.3359 148.031C23.5495 148.031 22.7344 148.25 21.8906 148.688L21.6016 148.016C22.5339 147.578 23.4557 147.359 24.3672 147.359C25.2995 147.359 25.9948 147.602 26.4531 148.086C26.9167 148.57 27.1484 149.326 27.1484 150.352V156H26.5781ZM23.4531 155.453C24.3594 155.453 25.0729 155.195 25.5938 154.68C26.1198 154.159 26.3828 153.438 26.3828 152.516V151.68L24.8984 151.742C23.7057 151.799 22.8542 151.987 22.3438 152.305C21.8385 152.617 21.5859 153.107 21.5859 153.773C21.5859 154.305 21.7474 154.719 22.0703 155.016C22.3984 155.307 22.8594 155.453 23.4531 155.453ZM33.2969 156.156C32.0833 156.156 31.1328 155.773 30.4453 155.008C29.7578 154.242 29.4141 153.174 29.4141 151.805C29.4141 150.398 29.7708 149.305 30.4844 148.523C31.1979 147.737 32.1745 147.344 33.4141 147.344C34.1484 147.344 34.8516 147.471 35.5234 147.727L35.3125 148.414C34.5781 148.169 33.9401 148.047 33.3984 148.047C32.3568 148.047 31.5677 148.37 31.0312 149.016C30.4948 149.656 30.2266 150.581 30.2266 151.789C30.2266 152.935 30.4948 153.833 31.0312 154.484C31.5677 155.13 32.3177 155.453 33.2812 155.453C34.0521 155.453 34.7682 155.315 35.4297 155.039V155.758C34.888 156.023 34.1771 156.156 33.2969 156.156ZM40.9062 156.156C39.6927 156.156 38.7422 155.773 38.0547 155.008C37.3672 154.242 37.0234 153.174 37.0234 151.805C37.0234 150.398 37.3802 149.305 38.0938 148.523C38.8073 147.737 39.7839 147.344 41.0234 147.344C41.7578 147.344 42.4609 147.471 43.1328 147.727L42.9219 148.414C42.1875 148.169 41.5495 148.047 41.0078 148.047C39.9661 148.047 39.1771 148.37 38.6406 149.016C38.1042 149.656 37.8359 150.581 37.8359 151.789C37.8359 152.935 38.1042 153.833 38.6406 154.484C39.1771 155.13 39.9271 155.453 40.8906 155.453C41.6615 155.453 42.3776 155.315 43.0391 155.039V155.758C42.4974 156.023 41.7865 156.156 40.9062 156.156ZM45.7969 147.508V153.008C45.7969 153.862 45.9766 154.484 46.3359 154.875C46.6953 155.26 47.2526 155.453 48.0078 155.453C49.0182 155.453 49.7604 155.198 50.2344 154.688C50.7135 154.177 50.9531 153.346 50.9531 152.195V147.508H51.7188V156H51.0625L50.9219 154.828H50.875C50.3229 155.714 49.3411 156.156 47.9297 156.156C45.9974 156.156 45.0312 155.122 45.0312 153.055V147.508H45.7969ZM59.8281 153.789C59.8281 154.549 59.5391 155.135 58.9609 155.547C58.3828 155.953 57.5625 156.156 56.5 156.156C55.3646 156.156 54.4635 155.982 53.7969 155.633V154.797C54.651 155.224 55.5521 155.438 56.5 155.438C57.3385 155.438 57.974 155.299 58.4062 155.023C58.8438 154.742 59.0625 154.37 59.0625 153.906C59.0625 153.479 58.888 153.12 58.5391 152.828C58.1953 152.536 57.6276 152.25 56.8359 151.969C55.987 151.661 55.3906 151.398 55.0469 151.18C54.7031 150.956 54.4427 150.706 54.2656 150.43C54.0938 150.148 54.0078 149.807 54.0078 149.406C54.0078 148.771 54.2734 148.268 54.8047 147.898C55.3411 147.529 56.0885 147.344 57.0469 147.344C57.9635 147.344 58.8333 147.516 59.6562 147.859L59.3672 148.562C58.5339 148.219 57.7604 148.047 57.0469 148.047C56.3542 148.047 55.8047 148.161 55.3984 148.391C54.9922 148.62 54.7891 148.938 54.7891 149.344C54.7891 149.786 54.9453 150.141 55.2578 150.406C55.5755 150.672 56.1927 150.969 57.1094 151.297C57.875 151.573 58.4323 151.823 58.7812 152.047C59.1302 152.266 59.3906 152.516 59.5625 152.797C59.7396 153.078 59.8281 153.409 59.8281 153.789ZM67.1719 156L66.9766 154.656H66.9141C66.487 155.203 66.0469 155.591 65.5938 155.82C65.1458 156.044 64.6146 156.156 64 156.156C63.1667 156.156 62.5182 155.943 62.0547 155.516C61.5911 155.089 61.3594 154.497 61.3594 153.742C61.3594 152.914 61.7031 152.271 62.3906 151.812C63.0833 151.354 64.0833 151.112 65.3906 151.086L67.0078 151.039V150.477C67.0078 149.669 66.8438 149.06 66.5156 148.648C66.1875 148.237 65.6589 148.031 64.9297 148.031C64.1432 148.031 63.3281 148.25 62.4844 148.688L62.1953 148.016C63.1276 147.578 64.0495 147.359 64.9609 147.359C65.8932 147.359 66.5885 147.602 67.0469 148.086C67.5104 148.57 67.7422 149.326 67.7422 150.352V156H67.1719ZM64.0469 155.453C64.9531 155.453 65.6667 155.195 66.1875 154.68C66.7135 154.159 66.9766 153.438 66.9766 152.516V151.68L65.4922 151.742C64.2995 151.799 63.4479 151.987 62.9375 152.305C62.4323 152.617 62.1797 153.107 62.1797 153.773C62.1797 154.305 62.3411 154.719 62.6641 155.016C62.9922 155.307 63.4531 155.453 64.0469 155.453ZM76.4219 156V150.492C76.4219 149.638 76.2422 149.018 75.8828 148.633C75.5234 148.242 74.9661 148.047 74.2109 148.047C73.1953 148.047 72.4505 148.305 71.9766 148.82C71.5078 149.331 71.2734 150.161 71.2734 151.312V156H70.5V147.508H71.1562L71.3047 148.672H71.3516C71.9036 147.786 72.8854 147.344 74.2969 147.344C76.224 147.344 77.1875 148.378 77.1875 150.445V156H76.4219ZM82.1797 155.469C82.6693 155.469 83.0964 155.427 83.4609 155.344V155.969C83.0859 156.094 82.6536 156.156 82.1641 156.156C81.4141 156.156 80.8594 155.956 80.5 155.555C80.1458 155.154 79.9688 154.523 79.9688 153.664V148.18H78.7109V147.727L79.9688 147.375L80.3594 145.453H80.7578V147.508H83.25V148.18H80.7578V153.555C80.7578 154.206 80.8724 154.688 81.1016 155C81.3307 155.312 81.6901 155.469 82.1797 155.469ZM86.0703 156H85.2969V147.508H86.0703V156ZM85.1875 145.148C85.1875 144.648 85.3516 144.398 85.6797 144.398C85.8411 144.398 85.9661 144.464 86.0547 144.594C86.1484 144.724 86.1953 144.909 86.1953 145.148C86.1953 145.383 86.1484 145.568 86.0547 145.703C85.9661 145.839 85.8411 145.906 85.6797 145.906C85.3516 145.906 85.1875 145.654 85.1875 145.148ZM89.5938 147.508V153.008C89.5938 153.862 89.7734 154.484 90.1328 154.875C90.4922 155.26 91.0495 155.453 91.8047 155.453C92.8151 155.453 93.5573 155.198 94.0312 154.688C94.5104 154.177 94.75 153.346 94.75 152.195V147.508H95.5156V156H94.8594L94.7188 154.828H94.6719C94.1198 155.714 93.138 156.156 91.7266 156.156C89.7943 156.156 88.8281 155.122 88.8281 153.055V147.508H89.5938ZM108.969 156V150.43C108.969 149.602 108.807 148.997 108.484 148.617C108.161 148.237 107.667 148.047 107 148.047C106.13 148.047 105.487 148.286 105.07 148.766C104.654 149.245 104.445 149.997 104.445 151.023V156H103.656V150.195C103.656 148.763 103 148.047 101.688 148.047C100.797 148.047 100.148 148.307 99.7422 148.828C99.3359 149.344 99.1328 150.172 99.1328 151.312V156H98.3594V147.508H99L99.1641 148.672H99.2109C99.4453 148.25 99.7786 147.924 100.211 147.695C100.643 147.461 101.12 147.344 101.641 147.344C102.979 147.344 103.839 147.846 104.219 148.852H104.25C104.526 148.367 104.896 147.995 105.359 147.734C105.828 147.474 106.359 147.344 106.953 147.344C107.88 147.344 108.576 147.591 109.039 148.086C109.503 148.581 109.734 149.367 109.734 150.445V156H108.969ZM119.75 147.344C120.365 147.344 120.896 147.456 121.344 147.68C121.792 147.904 122.193 148.286 122.547 148.828H122.594C122.562 148.172 122.547 147.529 122.547 146.898V143.844H123.312V156H122.805L122.609 154.703H122.547C121.901 155.672 120.974 156.156 119.766 156.156C118.594 156.156 117.698 155.792 117.078 155.062C116.458 154.333 116.148 153.271 116.148 151.875C116.148 150.406 116.456 149.284 117.07 148.508C117.685 147.732 118.578 147.344 119.75 147.344ZM119.75 148.047C118.823 148.047 118.125 148.372 117.656 149.023C117.193 149.674 116.961 150.62 116.961 151.859C116.961 154.266 117.896 155.469 119.766 155.469C120.724 155.469 121.427 155.19 121.875 154.633C122.323 154.076 122.547 153.156 122.547 151.875V151.742C122.547 150.43 122.326 149.487 121.883 148.914C121.445 148.336 120.734 148.047 119.75 148.047ZM133.195 151.742C133.195 153.128 132.859 154.211 132.188 154.992C131.516 155.768 130.589 156.156 129.406 156.156C128.661 156.156 128.005 155.977 127.438 155.617C126.87 155.258 126.435 154.742 126.133 154.07C125.831 153.398 125.68 152.622 125.68 151.742C125.68 150.357 126.016 149.279 126.688 148.508C127.359 147.732 128.281 147.344 129.453 147.344C130.62 147.344 131.534 147.737 132.195 148.523C132.862 149.305 133.195 150.378 133.195 151.742ZM126.492 151.742C126.492 152.909 126.747 153.82 127.258 154.477C127.773 155.128 128.5 155.453 129.438 155.453C130.375 155.453 131.099 155.128 131.609 154.477C132.125 153.82 132.383 152.909 132.383 151.742C132.383 150.57 132.122 149.661 131.602 149.016C131.086 148.37 130.359 148.047 129.422 148.047C128.484 148.047 127.76 148.37 127.25 149.016C126.745 149.656 126.492 150.565 126.492 151.742ZM136.32 156H135.547V143.844H136.32V156ZM146.195 151.742C146.195 153.128 145.859 154.211 145.188 154.992C144.516 155.768 143.589 156.156 142.406 156.156C141.661 156.156 141.005 155.977 140.438 155.617C139.87 155.258 139.435 154.742 139.133 154.07C138.831 153.398 138.68 152.622 138.68 151.742C138.68 150.357 139.016 149.279 139.688 148.508C140.359 147.732 141.281 147.344 142.453 147.344C143.62 147.344 144.534 147.737 145.195 148.523C145.862 149.305 146.195 150.378 146.195 151.742ZM139.492 151.742C139.492 152.909 139.747 153.82 140.258 154.477C140.773 155.128 141.5 155.453 142.438 155.453C143.375 155.453 144.099 155.128 144.609 154.477C145.125 153.82 145.383 152.909 145.383 151.742C145.383 150.57 145.122 149.661 144.602 149.016C144.086 148.37 143.359 148.047 142.422 148.047C141.484 148.047 140.76 148.37 140.25 149.016C139.745 149.656 139.492 150.565 139.492 151.742ZM151.891 147.344C152.25 147.344 152.635 147.38 153.047 147.453L152.898 148.195C152.544 148.107 152.177 148.062 151.797 148.062C151.073 148.062 150.479 148.37 150.016 148.984C149.552 149.599 149.32 150.375 149.32 151.312V156H148.547V147.508H149.203L149.281 149.039H149.336C149.685 148.414 150.057 147.977 150.453 147.727C150.849 147.471 151.328 147.344 151.891 147.344ZM158.211 156.156C156.977 156.156 156.013 155.776 155.32 155.016C154.633 154.255 154.289 153.19 154.289 151.82C154.289 150.466 154.622 149.383 155.289 148.57C155.956 147.753 156.854 147.344 157.984 147.344C158.984 147.344 159.773 147.693 160.352 148.391C160.93 149.089 161.219 150.036 161.219 151.234V151.859H155.102C155.112 153.026 155.383 153.917 155.914 154.531C156.451 155.146 157.216 155.453 158.211 155.453C158.695 155.453 159.12 155.419 159.484 155.352C159.854 155.284 160.32 155.138 160.883 154.914V155.617C160.404 155.826 159.961 155.966 159.555 156.039C159.148 156.117 158.701 156.156 158.211 156.156ZM157.984 148.031C157.167 148.031 156.51 148.302 156.016 148.844C155.521 149.38 155.232 150.156 155.148 151.172H160.398C160.398 150.188 160.185 149.419 159.758 148.867C159.331 148.31 158.74 148.031 157.984 148.031ZM174.172 156V150.43C174.172 149.602 174.01 148.997 173.688 148.617C173.365 148.237 172.87 148.047 172.203 148.047C171.333 148.047 170.69 148.286 170.273 148.766C169.857 149.245 169.648 149.997 169.648 151.023V156H168.859V150.195C168.859 148.763 168.203 148.047 166.891 148.047C166 148.047 165.352 148.307 164.945 148.828C164.539 149.344 164.336 150.172 164.336 151.312V156H163.562V147.508H164.203L164.367 148.672H164.414C164.648 148.25 164.982 147.924 165.414 147.695C165.846 147.461 166.323 147.344 166.844 147.344C168.182 147.344 169.042 147.846 169.422 148.852H169.453C169.729 148.367 170.099 147.995 170.562 147.734C171.031 147.474 171.562 147.344 172.156 147.344C173.083 147.344 173.779 147.591 174.242 148.086C174.706 148.581 174.938 149.367 174.938 150.445V156H174.172ZM180.711 156.156C179.596 156.156 178.732 155.786 178.117 155.047C177.503 154.307 177.195 153.24 177.195 151.844C177.195 150.411 177.503 149.305 178.117 148.523C178.732 147.737 179.612 147.344 180.758 147.344C181.987 147.344 182.906 147.797 183.516 148.703H183.562L183.703 147.508H184.359V159.844H183.594V156.609C183.594 155.974 183.609 155.328 183.641 154.672H183.594C182.979 155.661 182.018 156.156 180.711 156.156ZM180.727 155.469C181.758 155.469 182.492 155.185 182.93 154.617C183.372 154.049 183.594 153.096 183.594 151.758V151.664C183.594 150.388 183.372 149.466 182.93 148.898C182.487 148.331 181.781 148.047 180.812 148.047C179.896 148.047 179.198 148.37 178.719 149.016C178.245 149.661 178.008 150.609 178.008 151.859C178.008 153.052 178.24 153.953 178.703 154.562C179.172 155.167 179.846 155.469 180.727 155.469ZM187.891 147.508V153.008C187.891 153.862 188.07 154.484 188.43 154.875C188.789 155.26 189.346 155.453 190.102 155.453C191.112 155.453 191.854 155.198 192.328 154.688C192.807 154.177 193.047 153.346 193.047 152.195V147.508H193.812V156H193.156L193.016 154.828H192.969C192.417 155.714 191.435 156.156 190.023 156.156C188.091 156.156 187.125 155.122 187.125 153.055V147.508H187.891ZM200.086 156.156C198.852 156.156 197.888 155.776 197.195 155.016C196.508 154.255 196.164 153.19 196.164 151.82C196.164 150.466 196.497 149.383 197.164 148.57C197.831 147.753 198.729 147.344 199.859 147.344C200.859 147.344 201.648 147.693 202.227 148.391C202.805 149.089 203.094 150.036 203.094 151.234V151.859H196.977C196.987 153.026 197.258 153.917 197.789 154.531C198.326 155.146 199.091 155.453 200.086 155.453C200.57 155.453 200.995 155.419 201.359 155.352C201.729 155.284 202.195 155.138 202.758 154.914V155.617C202.279 155.826 201.836 155.966 201.43 156.039C201.023 156.117 200.576 156.156 200.086 156.156ZM199.859 148.031C199.042 148.031 198.385 148.302 197.891 148.844C197.396 149.38 197.107 150.156 197.023 151.172H202.273C202.273 150.188 202.06 149.419 201.633 148.867C201.206 148.31 200.615 148.031 199.859 148.031Z" fill="#060000"/>
<path d="M35.48 41.4L30.152 48.06L24.824 41.4H21.692V54H24.482V45.234L30.008 51.984H30.152L35.678 45.234V54H38.558V41.4H35.48ZM53.678 54H56.792L50.114 41.4H46.964L40.286 54H43.364L44.714 51.336H52.328L53.678 54ZM45.902 48.996L48.512 43.866L51.122 48.996H45.902ZM72.9906 54L66.7806 46.368L72.6486 41.4H68.8686L61.3806 47.79V41.4H58.5006V54H61.3806V50.868L64.6746 48.078L69.5346 54H72.9906ZM77.4642 51.588V48.816H85.7622V46.404H77.4642V43.812H87.4002V41.4H74.6022V54H87.5802V51.588H77.4642ZM101.123 41.4V47.844C101.123 50.364 99.6469 51.876 96.9289 51.876C94.2109 51.876 92.7349 50.364 92.7349 47.844V41.4H89.8549V48.06C89.8549 51.84 92.3569 54.396 96.9289 54.396C101.501 54.396 104.003 51.84 104.003 48.06V41.4H101.123ZM115.779 41.4H107.157V54H110.037V49.932H115.779C119.019 49.932 121.179 48.456 121.179 45.666C121.179 42.912 119.019 41.4 115.779 41.4ZM115.545 47.556H110.037V43.812H115.545C117.165 43.812 118.245 44.244 118.245 45.684C118.245 47.124 117.165 47.556 115.545 47.556ZM124.389 46.872C125.379 46.872 126.081 46.242 126.081 45.378C126.081 44.532 125.379 43.866 124.389 43.866C123.381 43.866 122.679 44.532 122.679 45.378C122.679 46.242 123.381 46.872 124.389 46.872ZM124.389 54.216C125.379 54.216 126.081 53.586 126.081 52.722C126.081 51.876 125.379 51.21 124.389 51.21C123.381 51.21 122.679 51.876 122.679 52.722C122.679 53.586 123.381 54.216 124.389 54.216ZM136.615 51.516V41.4H133.735V54H145.525V51.516H136.615ZM159.27 54H162.384L155.706 41.4H152.556L145.878 54H148.956L150.306 51.336H157.92L159.27 54ZM151.494 48.996L154.104 43.866L156.714 48.996H151.494ZM174.874 47.412C176.746 47.286 177.682 46.062 177.682 44.622C177.682 42.588 175.774 41.4 172.75 41.4H164.092V54H173.47C176.494 54 178.402 52.776 178.402 50.544C178.402 48.546 176.854 47.52 174.874 47.412ZM166.936 43.668H172.282C173.848 43.668 174.82 43.938 174.82 45.09C174.82 46.26 173.848 46.512 172.282 46.512H166.936V43.668ZM172.876 51.732H166.936V48.708H172.876C174.496 48.708 175.45 48.942 175.45 50.22C175.45 51.48 174.496 51.732 172.876 51.732ZM183.777 54V41.4H180.897V54H183.777ZM194.355 54.396C199.269 54.396 202.365 51.912 202.365 47.7C202.365 43.488 199.269 41.004 194.355 41.004C189.441 41.004 186.345 43.488 186.345 47.7C186.345 51.912 189.441 54.396 194.355 54.396ZM194.355 51.912C191.223 51.912 189.279 50.4 189.279 47.7C189.279 45 191.241 43.488 194.355 43.488C197.469 43.488 199.431 45 199.431 47.7C199.431 50.4 197.469 51.912 194.355 51.912ZM211.496 46.242C208.994 46.044 207.194 45.936 207.194 44.856C207.194 43.704 209.282 43.398 210.992 43.416C213.044 43.434 214.754 43.866 216.14 44.928L217.724 42.93C216.122 41.688 213.746 41.004 210.992 41.004C207.104 41.004 204.296 42.444 204.296 45.072C204.296 47.772 207.644 48.564 211.244 48.87C214.142 49.122 215.438 49.41 215.438 50.454C215.438 51.498 214.142 51.984 211.586 51.984C209.012 51.984 207.014 51.318 205.466 49.896L203.81 51.858C205.736 53.496 208.328 54.396 211.514 54.396C215.978 54.396 218.336 52.668 218.336 50.184C218.336 47.412 215.51 46.566 211.496 46.242ZM30.314 65.4H21.692V78H24.572V73.932H30.314C33.554 73.932 35.714 72.456 35.714 69.666C35.714 66.912 33.554 65.4 30.314 65.4ZM30.08 71.556H24.572V67.812H30.08C31.7 67.812 32.78 68.244 32.78 69.684C32.78 71.124 31.7 71.556 30.08 71.556ZM40.8138 75.588V72.816H49.1118V70.404H40.8138V67.812H50.7498V65.4H37.9518V78H50.9298V75.588H40.8138ZM67.8925 78L64.0045 73.518C66.0925 73.032 67.5145 71.7 67.5145 69.558C67.5145 66.822 65.1925 65.4 62.1145 65.4H53.4205V78H56.2825V73.716H60.8365L64.4545 78H67.8925ZM56.2645 71.34V67.812H61.9525C63.4645 67.812 64.5805 68.172 64.5805 69.576C64.5805 70.98 63.4645 71.34 61.9525 71.34H56.2645ZM82.934 67.884V65.4H70.19V78H73.07V73.284H81.386V70.8H73.07V67.884H82.934ZM87.9583 75.588V72.816H96.2563V70.404H87.9583V67.812H97.8943V65.4H85.0963V78H98.0743V75.588H87.9583ZM107.341 75.912C104.353 75.912 102.373 74.472 102.373 71.7C102.373 68.928 104.353 67.488 107.341 67.488C109.213 67.488 110.581 68.118 111.481 69.522L114.127 68.208C112.975 66.462 110.545 65.004 107.377 65.004C102.517 65.004 99.4386 67.506 99.4386 71.7C99.4386 75.894 102.517 78.396 107.251 78.396C110.545 78.396 112.975 76.956 114.163 75.174L111.535 73.86C110.599 75.3 109.213 75.912 107.341 75.912ZM128.789 65.4H114.929V67.884H120.401V78H123.281V67.884H128.789V65.4ZM137.525 78.396C142.439 78.396 145.535 75.912 145.535 71.7C145.535 67.488 142.439 65.004 137.525 65.004C132.611 65.004 129.515 67.488 129.515 71.7C129.515 75.912 132.611 78.396 137.525 78.396ZM137.525 75.912C134.393 75.912 132.449 74.4 132.449 71.7C132.449 69 134.411 67.488 137.525 67.488C140.639 67.488 142.601 69 142.601 71.7C142.601 74.4 140.639 75.912 137.525 75.912ZM154.665 70.242C152.163 70.044 150.363 69.936 150.363 68.856C150.363 67.704 152.451 67.398 154.161 67.416C156.213 67.434 157.923 67.866 159.309 68.928L160.893 66.93C159.291 65.688 156.915 65.004 154.161 65.004C150.273 65.004 147.465 66.444 147.465 69.072C147.465 71.772 150.813 72.564 154.413 72.87C157.311 73.122 158.607 73.41 158.607 74.454C158.607 75.498 157.311 75.984 154.755 75.984C152.181 75.984 150.183 75.318 148.635 73.896L146.979 75.858C148.905 77.496 151.497 78.396 154.683 78.396C159.147 78.396 161.505 76.668 161.505 74.184C161.505 71.412 158.679 70.566 154.665 70.242Z" fill="#060000"/>
<path opacity="0.3" fill-rule="evenodd" clip-rule="evenodd" d="M202 19C202 21.7614 199.761 24 197 24C194.239 24 192 21.7614 192 19C192 16.2386 194.239 14 197 14C199.761 14 202 16.2386 202 19ZM203 19C203 22.3137 200.314 25 197 25C193.686 25 191 22.3137 191 19C191 15.6863 193.686 13 197 13C200.314 13 203 15.6863 203 19ZM196.5 16V19.3333V19.5675L196.68 19.7174L198.68 21.3841L199.32 20.6159L197.5 19.0991V16H196.5Z" fill="black"/>
</svg>
