<svg width="285" height="168" viewBox="0 0 285 168" fill="none" xmlns="http://www.w3.org/2000/svg">
<rect width="285" height="168" fill="white"/>
<path opacity="0.3" d="M263 10V28" stroke="black"/>
<path d="M31.9219 129.055C31.9219 130.008 31.5703 130.763 30.8672 131.32C30.1693 131.878 29.2396 132.156 28.0781 132.156C26.6823 132.156 25.612 132.003 24.8672 131.695V130.898C25.6901 131.247 26.7396 131.422 28.0156 131.422C28.9531 131.422 29.6953 131.208 30.2422 130.781C30.7943 130.349 31.0703 129.784 31.0703 129.086C31.0703 128.654 30.9792 128.297 30.7969 128.016C30.6146 127.729 30.3177 127.469 29.9062 127.234C29.4948 127 28.8906 126.747 28.0938 126.477C26.9271 126.076 26.1198 125.643 25.6719 125.18C25.2292 124.711 25.0078 124.089 25.0078 123.312C25.0078 122.458 25.3411 121.763 26.0078 121.227C26.6797 120.685 27.5417 120.414 28.5938 120.414C29.6667 120.414 30.6745 120.617 31.6172 121.023L31.3281 121.711C30.3802 121.315 29.474 121.117 28.6094 121.117C27.7656 121.117 27.0938 121.312 26.5938 121.703C26.0938 122.094 25.8438 122.625 25.8438 123.297C25.8438 123.719 25.9193 124.065 26.0703 124.336C26.2266 124.607 26.4792 124.852 26.8281 125.07C27.1771 125.284 27.776 125.542 28.625 125.844C29.5156 126.151 30.1849 126.451 30.6328 126.742C31.0807 127.029 31.4062 127.357 31.6094 127.727C31.8177 128.091 31.9219 128.534 31.9219 129.055ZM37.5703 132.156C36.3359 132.156 35.3724 131.776 34.6797 131.016C33.9922 130.255 33.6484 129.19 33.6484 127.82C33.6484 126.466 33.9818 125.383 34.6484 124.57C35.3151 123.753 36.2135 123.344 37.3438 123.344C38.3438 123.344 39.1328 123.693 39.7109 124.391C40.2891 125.089 40.5781 126.036 40.5781 127.234V127.859H34.4609C34.4714 129.026 34.7422 129.917 35.2734 130.531C35.8099 131.146 36.5755 131.453 37.5703 131.453C38.0547 131.453 38.4792 131.419 38.8438 131.352C39.2135 131.284 39.6797 131.138 40.2422 130.914V131.617C39.763 131.826 39.3203 131.966 38.9141 132.039C38.5078 132.117 38.0599 132.156 37.5703 132.156ZM37.3438 124.031C36.526 124.031 35.8698 124.302 35.375 124.844C34.8802 125.38 34.5911 126.156 34.5078 127.172H39.7578C39.7578 126.188 39.5443 125.419 39.1172 124.867C38.6901 124.31 38.099 124.031 37.3438 124.031ZM46.0312 123.344C46.6458 123.344 47.1771 123.456 47.625 123.68C48.0729 123.904 48.474 124.286 48.8281 124.828H48.875C48.8438 124.172 48.8281 123.529 48.8281 122.898V119.844H49.5938V132H49.0859L48.8906 130.703H48.8281C48.1823 131.672 47.2552 132.156 46.0469 132.156C44.875 132.156 43.9792 131.792 43.3594 131.062C42.7396 130.333 42.4297 129.271 42.4297 127.875C42.4297 126.406 42.737 125.284 43.3516 124.508C43.9661 123.732 44.8594 123.344 46.0312 123.344ZM46.0312 124.047C45.1042 124.047 44.4062 124.372 43.9375 125.023C43.474 125.674 43.2422 126.62 43.2422 127.859C43.2422 130.266 44.1771 131.469 46.0469 131.469C47.0052 131.469 47.7083 131.19 48.1562 130.633C48.6042 130.076 48.8281 129.156 48.8281 127.875V127.742C48.8281 126.43 48.6068 125.487 48.1641 124.914C47.7266 124.336 47.0156 124.047 46.0312 124.047ZM57.2812 123.508V129.008C57.2812 129.862 57.4609 130.484 57.8203 130.875C58.1797 131.26 58.737 131.453 59.4922 131.453C60.5026 131.453 61.2448 131.198 61.7188 130.688C62.1979 130.177 62.4375 129.346 62.4375 128.195V123.508H63.2031V132H62.5469L62.4062 130.828H62.3594C61.8073 131.714 60.8255 132.156 59.4141 132.156C57.4818 132.156 56.5156 131.122 56.5156 129.055V123.508H57.2812ZM68.2891 131.469C68.7786 131.469 69.2057 131.427 69.5703 131.344V131.969C69.1953 132.094 68.763 132.156 68.2734 132.156C67.5234 132.156 66.9688 131.956 66.6094 131.555C66.2552 131.154 66.0781 130.523 66.0781 129.664V124.18H64.8203V123.727L66.0781 123.375L66.4688 121.453H66.8672V123.508H69.3594V124.18H66.8672V129.555C66.8672 130.206 66.9818 130.688 67.2109 131C67.4401 131.312 67.7995 131.469 68.2891 131.469ZM79.1953 132.156C77.888 132.156 76.9349 131.667 76.3359 130.688H76.2812L76.3047 131.344C76.3255 131.729 76.3359 132.151 76.3359 132.609V135.844H75.5625V123.508H76.2188L76.3672 124.719H76.4141C76.9974 123.802 77.9297 123.344 79.2109 123.344C80.3568 123.344 81.2292 123.721 81.8281 124.477C82.4323 125.227 82.7344 126.32 82.7344 127.758C82.7344 129.154 82.4167 130.237 81.7812 131.008C81.151 131.773 80.2891 132.156 79.1953 132.156ZM79.1797 131.469C80.0495 131.469 80.7214 131.146 81.1953 130.5C81.6745 129.854 81.9141 128.951 81.9141 127.789C81.9141 125.294 81.013 124.047 79.2109 124.047C78.2214 124.047 77.4948 124.32 77.0312 124.867C76.5677 125.409 76.3359 126.294 76.3359 127.523V127.773C76.3359 129.102 76.5573 130.049 77 130.617C77.4479 131.185 78.1745 131.469 79.1797 131.469ZM88.5234 132.156C87.2891 132.156 86.3255 131.776 85.6328 131.016C84.9453 130.255 84.6016 129.19 84.6016 127.82C84.6016 126.466 84.9349 125.383 85.6016 124.57C86.2682 123.753 87.1667 123.344 88.2969 123.344C89.2969 123.344 90.0859 123.693 90.6641 124.391C91.2422 125.089 91.5312 126.036 91.5312 127.234V127.859H85.4141C85.4245 129.026 85.6953 129.917 86.2266 130.531C86.763 131.146 87.5286 131.453 88.5234 131.453C89.0078 131.453 89.4323 131.419 89.7969 131.352C90.1667 131.284 90.6328 131.138 91.1953 130.914V131.617C90.7161 131.826 90.2734 131.966 89.8672 132.039C89.4609 132.117 89.013 132.156 88.5234 132.156ZM88.2969 124.031C87.4792 124.031 86.8229 124.302 86.3281 124.844C85.8333 125.38 85.5443 126.156 85.4609 127.172H90.7109C90.7109 126.188 90.4974 125.419 90.0703 124.867C89.6432 124.31 89.0521 124.031 88.2969 124.031ZM97.2188 123.344C97.5781 123.344 97.9635 123.38 98.375 123.453L98.2266 124.195C97.8724 124.107 97.5052 124.062 97.125 124.062C96.401 124.062 95.8073 124.37 95.3438 124.984C94.8802 125.599 94.6484 126.375 94.6484 127.312V132H93.875V123.508H94.5312L94.6094 125.039H94.6641C95.013 124.414 95.3854 123.977 95.7812 123.727C96.1771 123.471 96.6562 123.344 97.2188 123.344ZM105.375 129.789C105.375 130.549 105.086 131.135 104.508 131.547C103.93 131.953 103.109 132.156 102.047 132.156C100.911 132.156 100.01 131.982 99.3438 131.633V130.797C100.198 131.224 101.099 131.438 102.047 131.438C102.885 131.438 103.521 131.299 103.953 131.023C104.391 130.742 104.609 130.37 104.609 129.906C104.609 129.479 104.435 129.12 104.086 128.828C103.742 128.536 103.174 128.25 102.383 127.969C101.534 127.661 100.938 127.398 100.594 127.18C100.25 126.956 99.9896 126.706 99.8125 126.43C99.6406 126.148 99.5547 125.807 99.5547 125.406C99.5547 124.771 99.8203 124.268 100.352 123.898C100.888 123.529 101.635 123.344 102.594 123.344C103.51 123.344 104.38 123.516 105.203 123.859L104.914 124.562C104.081 124.219 103.307 124.047 102.594 124.047C101.901 124.047 101.352 124.161 100.945 124.391C100.539 124.62 100.336 124.938 100.336 125.344C100.336 125.786 100.492 126.141 100.805 126.406C101.122 126.672 101.74 126.969 102.656 127.297C103.422 127.573 103.979 127.823 104.328 128.047C104.677 128.266 104.938 128.516 105.109 128.797C105.286 129.078 105.375 129.409 105.375 129.789ZM111.195 132.156C109.888 132.156 108.935 131.667 108.336 130.688H108.281L108.305 131.344C108.326 131.729 108.336 132.151 108.336 132.609V135.844H107.562V123.508H108.219L108.367 124.719H108.414C108.997 123.802 109.93 123.344 111.211 123.344C112.357 123.344 113.229 123.721 113.828 124.477C114.432 125.227 114.734 126.32 114.734 127.758C114.734 129.154 114.417 130.237 113.781 131.008C113.151 131.773 112.289 132.156 111.195 132.156ZM111.18 131.469C112.049 131.469 112.721 131.146 113.195 130.5C113.674 129.854 113.914 128.951 113.914 127.789C113.914 125.294 113.013 124.047 111.211 124.047C110.221 124.047 109.495 124.32 109.031 124.867C108.568 125.409 108.336 126.294 108.336 127.523V127.773C108.336 129.102 108.557 130.049 109 130.617C109.448 131.185 110.174 131.469 111.18 131.469ZM117.867 132H117.094V123.508H117.867V132ZM116.984 121.148C116.984 120.648 117.148 120.398 117.477 120.398C117.638 120.398 117.763 120.464 117.852 120.594C117.945 120.724 117.992 120.909 117.992 121.148C117.992 121.383 117.945 121.568 117.852 121.703C117.763 121.839 117.638 121.906 117.477 121.906C117.148 121.906 116.984 121.654 116.984 121.148ZM124.109 132.156C122.896 132.156 121.945 131.773 121.258 131.008C120.57 130.242 120.227 129.174 120.227 127.805C120.227 126.398 120.583 125.305 121.297 124.523C122.01 123.737 122.987 123.344 124.227 123.344C124.961 123.344 125.664 123.471 126.336 123.727L126.125 124.414C125.391 124.169 124.753 124.047 124.211 124.047C123.169 124.047 122.38 124.37 121.844 125.016C121.307 125.656 121.039 126.581 121.039 127.789C121.039 128.935 121.307 129.833 121.844 130.484C122.38 131.13 123.13 131.453 124.094 131.453C124.865 131.453 125.581 131.315 126.242 131.039V131.758C125.701 132.023 124.99 132.156 124.109 132.156ZM129.102 132H128.328V123.508H129.102V132ZM128.219 121.148C128.219 120.648 128.383 120.398 128.711 120.398C128.872 120.398 128.997 120.464 129.086 120.594C129.18 120.724 129.227 120.909 129.227 121.148C129.227 121.383 129.18 121.568 129.086 121.703C128.997 121.839 128.872 121.906 128.711 121.906C128.383 121.906 128.219 121.654 128.219 121.148ZM137.109 132L136.914 130.656H136.852C136.424 131.203 135.984 131.591 135.531 131.82C135.083 132.044 134.552 132.156 133.938 132.156C133.104 132.156 132.456 131.943 131.992 131.516C131.529 131.089 131.297 130.497 131.297 129.742C131.297 128.914 131.641 128.271 132.328 127.812C133.021 127.354 134.021 127.112 135.328 127.086L136.945 127.039V126.477C136.945 125.669 136.781 125.06 136.453 124.648C136.125 124.237 135.596 124.031 134.867 124.031C134.081 124.031 133.266 124.25 132.422 124.688L132.133 124.016C133.065 123.578 133.987 123.359 134.898 123.359C135.831 123.359 136.526 123.602 136.984 124.086C137.448 124.57 137.68 125.326 137.68 126.352V132H137.109ZM133.984 131.453C134.891 131.453 135.604 131.195 136.125 130.68C136.651 130.159 136.914 129.438 136.914 128.516V127.68L135.43 127.742C134.237 127.799 133.385 127.987 132.875 128.305C132.37 128.617 132.117 129.107 132.117 129.773C132.117 130.305 132.279 130.719 132.602 131.016C132.93 131.307 133.391 131.453 133.984 131.453ZM142.68 131.469C143.169 131.469 143.596 131.427 143.961 131.344V131.969C143.586 132.094 143.154 132.156 142.664 132.156C141.914 132.156 141.359 131.956 141 131.555C140.646 131.154 140.469 130.523 140.469 129.664V124.18H139.211V123.727L140.469 123.375L140.859 121.453H141.258V123.508H143.75V124.18H141.258V129.555C141.258 130.206 141.372 130.688 141.602 131C141.831 131.312 142.19 131.469 142.68 131.469ZM146.57 132H145.797V123.508H146.57V132ZM145.688 121.148C145.688 120.648 145.852 120.398 146.18 120.398C146.341 120.398 146.466 120.464 146.555 120.594C146.648 120.724 146.695 120.909 146.695 121.148C146.695 121.383 146.648 121.568 146.555 121.703C146.466 121.839 146.341 121.906 146.18 121.906C145.852 121.906 145.688 121.654 145.688 121.148ZM154.688 129.789C154.688 130.549 154.398 131.135 153.82 131.547C153.242 131.953 152.422 132.156 151.359 132.156C150.224 132.156 149.323 131.982 148.656 131.633V130.797C149.51 131.224 150.411 131.438 151.359 131.438C152.198 131.438 152.833 131.299 153.266 131.023C153.703 130.742 153.922 130.37 153.922 129.906C153.922 129.479 153.747 129.12 153.398 128.828C153.055 128.536 152.487 128.25 151.695 127.969C150.846 127.661 150.25 127.398 149.906 127.18C149.562 126.956 149.302 126.706 149.125 126.43C148.953 126.148 148.867 125.807 148.867 125.406C148.867 124.771 149.133 124.268 149.664 123.898C150.201 123.529 150.948 123.344 151.906 123.344C152.823 123.344 153.693 123.516 154.516 123.859L154.227 124.562C153.393 124.219 152.62 124.047 151.906 124.047C151.214 124.047 150.664 124.161 150.258 124.391C149.852 124.62 149.648 124.938 149.648 125.344C149.648 125.786 149.805 126.141 150.117 126.406C150.435 126.672 151.052 126.969 151.969 127.297C152.734 127.573 153.292 127.823 153.641 128.047C153.99 128.266 154.25 128.516 154.422 128.797C154.599 129.078 154.688 129.409 154.688 129.789ZM161.703 123.508V129.008C161.703 129.862 161.883 130.484 162.242 130.875C162.602 131.26 163.159 131.453 163.914 131.453C164.924 131.453 165.667 131.198 166.141 130.688C166.62 130.177 166.859 129.346 166.859 128.195V123.508H167.625V132H166.969L166.828 130.828H166.781C166.229 131.714 165.247 132.156 163.836 132.156C161.904 132.156 160.938 131.122 160.938 129.055V123.508H161.703ZM176.391 132V126.492C176.391 125.638 176.211 125.018 175.852 124.633C175.492 124.242 174.935 124.047 174.18 124.047C173.164 124.047 172.419 124.305 171.945 124.82C171.477 125.331 171.242 126.161 171.242 127.312V132H170.469V123.508H171.125L171.273 124.672H171.32C171.872 123.786 172.854 123.344 174.266 123.344C176.193 123.344 177.156 124.378 177.156 126.445V132H176.391ZM183.016 123.344C183.63 123.344 184.161 123.456 184.609 123.68C185.057 123.904 185.458 124.286 185.812 124.828H185.859C185.828 124.172 185.812 123.529 185.812 122.898V119.844H186.578V132H186.07L185.875 130.703H185.812C185.167 131.672 184.24 132.156 183.031 132.156C181.859 132.156 180.964 131.792 180.344 131.062C179.724 130.333 179.414 129.271 179.414 127.875C179.414 126.406 179.721 125.284 180.336 124.508C180.951 123.732 181.844 123.344 183.016 123.344ZM183.016 124.047C182.089 124.047 181.391 124.372 180.922 125.023C180.458 125.674 180.227 126.62 180.227 127.859C180.227 130.266 181.161 131.469 183.031 131.469C183.99 131.469 184.693 131.19 185.141 130.633C185.589 130.076 185.812 129.156 185.812 127.875V127.742C185.812 126.43 185.591 125.487 185.148 124.914C184.711 124.336 184 124.047 183.016 124.047ZM192.867 132.156C191.633 132.156 190.669 131.776 189.977 131.016C189.289 130.255 188.945 129.19 188.945 127.82C188.945 126.466 189.279 125.383 189.945 124.57C190.612 123.753 191.51 123.344 192.641 123.344C193.641 123.344 194.43 123.693 195.008 124.391C195.586 125.089 195.875 126.036 195.875 127.234V127.859H189.758C189.768 129.026 190.039 129.917 190.57 130.531C191.107 131.146 191.872 131.453 192.867 131.453C193.352 131.453 193.776 131.419 194.141 131.352C194.51 131.284 194.977 131.138 195.539 130.914V131.617C195.06 131.826 194.617 131.966 194.211 132.039C193.805 132.117 193.357 132.156 192.867 132.156ZM192.641 124.031C191.823 124.031 191.167 124.302 190.672 124.844C190.177 125.38 189.888 126.156 189.805 127.172H195.055C195.055 126.188 194.841 125.419 194.414 124.867C193.987 124.31 193.396 124.031 192.641 124.031ZM209.398 127.742C209.398 129.128 209.062 130.211 208.391 130.992C207.719 131.768 206.792 132.156 205.609 132.156C204.865 132.156 204.208 131.977 203.641 131.617C203.073 131.258 202.638 130.742 202.336 130.07C202.034 129.398 201.883 128.622 201.883 127.742C201.883 126.357 202.219 125.279 202.891 124.508C203.562 123.732 204.484 123.344 205.656 123.344C206.823 123.344 207.737 123.737 208.398 124.523C209.065 125.305 209.398 126.378 209.398 127.742ZM202.695 127.742C202.695 128.909 202.951 129.82 203.461 130.477C203.977 131.128 204.703 131.453 205.641 131.453C206.578 131.453 207.302 131.128 207.812 130.477C208.328 129.82 208.586 128.909 208.586 127.742C208.586 126.57 208.326 125.661 207.805 125.016C207.289 124.37 206.562 124.047 205.625 124.047C204.688 124.047 203.964 124.37 203.453 125.016C202.948 125.656 202.695 126.565 202.695 127.742ZM222.359 132V126.43C222.359 125.602 222.198 124.997 221.875 124.617C221.552 124.237 221.057 124.047 220.391 124.047C219.521 124.047 218.878 124.286 218.461 124.766C218.044 125.245 217.836 125.997 217.836 127.023V132H217.047V126.195C217.047 124.763 216.391 124.047 215.078 124.047C214.188 124.047 213.539 124.307 213.133 124.828C212.727 125.344 212.523 126.172 212.523 127.312V132H211.75V123.508H212.391L212.555 124.672H212.602C212.836 124.25 213.169 123.924 213.602 123.695C214.034 123.461 214.51 123.344 215.031 123.344C216.37 123.344 217.229 123.846 217.609 124.852H217.641C217.917 124.367 218.286 123.995 218.75 123.734C219.219 123.474 219.75 123.344 220.344 123.344C221.271 123.344 221.966 123.591 222.43 124.086C222.893 124.581 223.125 125.367 223.125 126.445V132H222.359ZM231.797 132V126.492C231.797 125.638 231.617 125.018 231.258 124.633C230.898 124.242 230.341 124.047 229.586 124.047C228.57 124.047 227.826 124.305 227.352 124.82C226.883 125.331 226.648 126.161 226.648 127.312V132H225.875V123.508H226.531L226.68 124.672H226.727C227.279 123.786 228.26 123.344 229.672 123.344C231.599 123.344 232.562 124.378 232.562 126.445V132H231.797ZM236.086 132H235.312V123.508H236.086V132ZM235.203 121.148C235.203 120.648 235.367 120.398 235.695 120.398C235.857 120.398 235.982 120.464 236.07 120.594C236.164 120.724 236.211 120.909 236.211 121.148C236.211 121.383 236.164 121.568 236.07 121.703C235.982 121.839 235.857 121.906 235.695 121.906C235.367 121.906 235.203 121.654 235.203 121.148ZM244.203 129.789C244.203 130.549 243.914 131.135 243.336 131.547C242.758 131.953 241.938 132.156 240.875 132.156C239.74 132.156 238.839 131.982 238.172 131.633V130.797C239.026 131.224 239.927 131.438 240.875 131.438C241.714 131.438 242.349 131.299 242.781 131.023C243.219 130.742 243.438 130.37 243.438 129.906C243.438 129.479 243.263 129.12 242.914 128.828C242.57 128.536 242.003 128.25 241.211 127.969C240.362 127.661 239.766 127.398 239.422 127.18C239.078 126.956 238.818 126.706 238.641 126.43C238.469 126.148 238.383 125.807 238.383 125.406C238.383 124.771 238.648 124.268 239.18 123.898C239.716 123.529 240.464 123.344 241.422 123.344C242.339 123.344 243.208 123.516 244.031 123.859L243.742 124.562C242.909 124.219 242.135 124.047 241.422 124.047C240.729 124.047 240.18 124.161 239.773 124.391C239.367 124.62 239.164 124.938 239.164 125.344C239.164 125.786 239.32 126.141 239.633 126.406C239.951 126.672 240.568 126.969 241.484 127.297C242.25 127.573 242.807 127.823 243.156 128.047C243.505 128.266 243.766 128.516 243.938 128.797C244.115 129.078 244.203 129.409 244.203 129.789ZM251.32 132H250.547V123.508H251.32V132ZM250.438 121.148C250.438 120.648 250.602 120.398 250.93 120.398C251.091 120.398 251.216 120.464 251.305 120.594C251.398 120.724 251.445 120.909 251.445 121.148C251.445 121.383 251.398 121.568 251.305 121.703C251.216 121.839 251.091 121.906 250.93 121.906C250.602 121.906 250.438 121.654 250.438 121.148ZM259.438 129.789C259.438 130.549 259.148 131.135 258.57 131.547C257.992 131.953 257.172 132.156 256.109 132.156C254.974 132.156 254.073 131.982 253.406 131.633V130.797C254.26 131.224 255.161 131.438 256.109 131.438C256.948 131.438 257.583 131.299 258.016 131.023C258.453 130.742 258.672 130.37 258.672 129.906C258.672 129.479 258.497 129.12 258.148 128.828C257.805 128.536 257.237 128.25 256.445 127.969C255.596 127.661 255 127.398 254.656 127.18C254.312 126.956 254.052 126.706 253.875 126.43C253.703 126.148 253.617 125.807 253.617 125.406C253.617 124.771 253.883 124.268 254.414 123.898C254.951 123.529 255.698 123.344 256.656 123.344C257.573 123.344 258.443 123.516 259.266 123.859L258.977 124.562C258.143 124.219 257.37 124.047 256.656 124.047C255.964 124.047 255.414 124.161 255.008 124.391C254.602 124.62 254.398 124.938 254.398 125.344C254.398 125.786 254.555 126.141 254.867 126.406C255.185 126.672 255.802 126.969 256.719 127.297C257.484 127.573 258.042 127.823 258.391 128.047C258.74 128.266 259 128.516 259.172 128.797C259.349 129.078 259.438 129.409 259.438 129.789ZM263.867 131.469C264.357 131.469 264.784 131.427 265.148 131.344V131.969C264.773 132.094 264.341 132.156 263.852 132.156C263.102 132.156 262.547 131.956 262.188 131.555C261.833 131.154 261.656 130.523 261.656 129.664V124.18H260.398V123.727L261.656 123.375L262.047 121.453H262.445V123.508H264.938V124.18H262.445V129.555C262.445 130.206 262.56 130.688 262.789 131C263.018 131.312 263.378 131.469 263.867 131.469ZM270.414 132.156C269.18 132.156 268.216 131.776 267.523 131.016C266.836 130.255 266.492 129.19 266.492 127.82C266.492 126.466 266.826 125.383 267.492 124.57C268.159 123.753 269.057 123.344 270.188 123.344C271.188 123.344 271.977 123.693 272.555 124.391C273.133 125.089 273.422 126.036 273.422 127.234V127.859H267.305C267.315 129.026 267.586 129.917 268.117 130.531C268.654 131.146 269.419 131.453 270.414 131.453C270.898 131.453 271.323 131.419 271.688 131.352C272.057 131.284 272.523 131.138 273.086 130.914V131.617C272.607 131.826 272.164 131.966 271.758 132.039C271.352 132.117 270.904 132.156 270.414 132.156ZM270.188 124.031C269.37 124.031 268.714 124.302 268.219 124.844C267.724 125.38 267.435 126.156 267.352 127.172H272.602C272.602 126.188 272.388 125.419 271.961 124.867C271.534 124.31 270.943 124.031 270.188 124.031ZM31.3438 156V150.492C31.3438 149.638 31.1641 149.018 30.8047 148.633C30.4453 148.242 29.888 148.047 29.1328 148.047C28.1172 148.047 27.3724 148.305 26.8984 148.82C26.4297 149.331 26.1953 150.161 26.1953 151.312V156H25.4219V147.508H26.0781L26.2266 148.672H26.2734C26.8255 147.786 27.8073 147.344 29.2188 147.344C31.1458 147.344 32.1094 148.378 32.1094 150.445V156H31.3438ZM40.0156 156L39.8203 154.656H39.7578C39.3307 155.203 38.8906 155.591 38.4375 155.82C37.9896 156.044 37.4583 156.156 36.8438 156.156C36.0104 156.156 35.362 155.943 34.8984 155.516C34.4349 155.089 34.2031 154.497 34.2031 153.742C34.2031 152.914 34.5469 152.271 35.2344 151.812C35.9271 151.354 36.9271 151.112 38.2344 151.086L39.8516 151.039V150.477C39.8516 149.669 39.6875 149.06 39.3594 148.648C39.0312 148.237 38.5026 148.031 37.7734 148.031C36.987 148.031 36.1719 148.25 35.3281 148.688L35.0391 148.016C35.9714 147.578 36.8932 147.359 37.8047 147.359C38.737 147.359 39.4323 147.602 39.8906 148.086C40.3542 148.57 40.5859 149.326 40.5859 150.352V156H40.0156ZM36.8906 155.453C37.7969 155.453 38.5104 155.195 39.0312 154.68C39.5573 154.159 39.8203 153.438 39.8203 152.516V151.68L38.3359 151.742C37.1432 151.799 36.2917 151.987 35.7812 152.305C35.276 152.617 35.0234 153.107 35.0234 153.773C35.0234 154.305 35.1849 154.719 35.5078 155.016C35.8359 155.307 36.2969 155.453 36.8906 155.453ZM45.5859 155.469C46.0755 155.469 46.5026 155.427 46.8672 155.344V155.969C46.4922 156.094 46.0599 156.156 45.5703 156.156C44.8203 156.156 44.2656 155.956 43.9062 155.555C43.5521 155.154 43.375 154.523 43.375 153.664V148.18H42.1172V147.727L43.375 147.375L43.7656 145.453H44.1641V147.508H46.6562V148.18H44.1641V153.555C44.1641 154.206 44.2786 154.688 44.5078 155C44.737 155.312 45.0964 155.469 45.5859 155.469ZM49.375 147.508V153.008C49.375 153.862 49.5547 154.484 49.9141 154.875C50.2734 155.26 50.8307 155.453 51.5859 155.453C52.5964 155.453 53.3385 155.198 53.8125 154.688C54.2917 154.177 54.5312 153.346 54.5312 152.195V147.508H55.2969V156H54.6406L54.5 154.828H54.4531C53.901 155.714 52.9193 156.156 51.5078 156.156C49.5755 156.156 48.6094 155.122 48.6094 153.055V147.508H49.375ZM63.4062 153.789C63.4062 154.549 63.1172 155.135 62.5391 155.547C61.9609 155.953 61.1406 156.156 60.0781 156.156C58.9427 156.156 58.0417 155.982 57.375 155.633V154.797C58.2292 155.224 59.1302 155.438 60.0781 155.438C60.9167 155.438 61.5521 155.299 61.9844 155.023C62.4219 154.742 62.6406 154.37 62.6406 153.906C62.6406 153.479 62.4661 153.12 62.1172 152.828C61.7734 152.536 61.2057 152.25 60.4141 151.969C59.5651 151.661 58.9688 151.398 58.625 151.18C58.2812 150.956 58.0208 150.706 57.8438 150.43C57.6719 150.148 57.5859 149.807 57.5859 149.406C57.5859 148.771 57.8516 148.268 58.3828 147.898C58.9193 147.529 59.6667 147.344 60.625 147.344C61.5417 147.344 62.4115 147.516 63.2344 147.859L62.9453 148.562C62.112 148.219 61.3385 148.047 60.625 148.047C59.9323 148.047 59.3828 148.161 58.9766 148.391C58.5703 148.62 58.3672 148.938 58.3672 149.344C58.3672 149.786 58.5234 150.141 58.8359 150.406C59.1536 150.672 59.7708 150.969 60.6875 151.297C61.4531 151.573 62.0104 151.823 62.3594 152.047C62.7083 152.266 62.9688 152.516 63.1406 152.797C63.3177 153.078 63.4062 153.409 63.4062 153.789ZM73.1797 156.156C71.9453 156.156 70.9818 155.776 70.2891 155.016C69.6016 154.255 69.2578 153.19 69.2578 151.82C69.2578 150.466 69.5911 149.383 70.2578 148.57C70.9245 147.753 71.8229 147.344 72.9531 147.344C73.9531 147.344 74.7422 147.693 75.3203 148.391C75.8984 149.089 76.1875 150.036 76.1875 151.234V151.859H70.0703C70.0807 153.026 70.3516 153.917 70.8828 154.531C71.4193 155.146 72.1849 155.453 73.1797 155.453C73.6641 155.453 74.0885 155.419 74.4531 155.352C74.8229 155.284 75.2891 155.138 75.8516 154.914V155.617C75.3724 155.826 74.9297 155.966 74.5234 156.039C74.1172 156.117 73.6693 156.156 73.1797 156.156ZM72.9531 148.031C72.1354 148.031 71.4792 148.302 70.9844 148.844C70.4896 149.38 70.2005 150.156 70.1172 151.172H75.3672C75.3672 150.188 75.1536 149.419 74.7266 148.867C74.2995 148.31 73.7083 148.031 72.9531 148.031ZM81.875 147.344C82.2344 147.344 82.6198 147.38 83.0312 147.453L82.8828 148.195C82.5286 148.107 82.1615 148.062 81.7812 148.062C81.0573 148.062 80.4635 148.37 80 148.984C79.5365 149.599 79.3047 150.375 79.3047 151.312V156H78.5312V147.508H79.1875L79.2656 149.039H79.3203C79.6693 148.414 80.0417 147.977 80.4375 147.727C80.8333 147.471 81.3125 147.344 81.875 147.344ZM88.1094 147.344C88.4688 147.344 88.8542 147.38 89.2656 147.453L89.1172 148.195C88.763 148.107 88.3958 148.062 88.0156 148.062C87.2917 148.062 86.6979 148.37 86.2344 148.984C85.7708 149.599 85.5391 150.375 85.5391 151.312V156H84.7656V147.508H85.4219L85.5 149.039H85.5547C85.9036 148.414 86.276 147.977 86.6719 147.727C87.0677 147.471 87.5469 147.344 88.1094 147.344ZM98.0234 151.742C98.0234 153.128 97.6875 154.211 97.0156 154.992C96.3438 155.768 95.4167 156.156 94.2344 156.156C93.4896 156.156 92.8333 155.977 92.2656 155.617C91.6979 155.258 91.263 154.742 90.9609 154.07C90.6589 153.398 90.5078 152.622 90.5078 151.742C90.5078 150.357 90.8438 149.279 91.5156 148.508C92.1875 147.732 93.1094 147.344 94.2812 147.344C95.4479 147.344 96.362 147.737 97.0234 148.523C97.6901 149.305 98.0234 150.378 98.0234 151.742ZM91.3203 151.742C91.3203 152.909 91.5755 153.82 92.0859 154.477C92.6016 155.128 93.3281 155.453 94.2656 155.453C95.2031 155.453 95.9271 155.128 96.4375 154.477C96.9531 153.82 97.2109 152.909 97.2109 151.742C97.2109 150.57 96.9505 149.661 96.4297 149.016C95.9141 148.37 95.1875 148.047 94.25 148.047C93.3125 148.047 92.5885 148.37 92.0781 149.016C91.5729 149.656 91.3203 150.565 91.3203 151.742ZM103.719 147.344C104.078 147.344 104.464 147.38 104.875 147.453L104.727 148.195C104.372 148.107 104.005 148.062 103.625 148.062C102.901 148.062 102.307 148.37 101.844 148.984C101.38 149.599 101.148 150.375 101.148 151.312V156H100.375V147.508H101.031L101.109 149.039H101.164C101.513 148.414 101.885 147.977 102.281 147.727C102.677 147.471 103.156 147.344 103.719 147.344ZM116.031 153.789C116.031 154.549 115.742 155.135 115.164 155.547C114.586 155.953 113.766 156.156 112.703 156.156C111.568 156.156 110.667 155.982 110 155.633V154.797C110.854 155.224 111.755 155.438 112.703 155.438C113.542 155.438 114.177 155.299 114.609 155.023C115.047 154.742 115.266 154.37 115.266 153.906C115.266 153.479 115.091 153.12 114.742 152.828C114.398 152.536 113.831 152.25 113.039 151.969C112.19 151.661 111.594 151.398 111.25 151.18C110.906 150.956 110.646 150.706 110.469 150.43C110.297 150.148 110.211 149.807 110.211 149.406C110.211 148.771 110.477 148.268 111.008 147.898C111.544 147.529 112.292 147.344 113.25 147.344C114.167 147.344 115.036 147.516 115.859 147.859L115.57 148.562C114.737 148.219 113.964 148.047 113.25 148.047C112.557 148.047 112.008 148.161 111.602 148.391C111.195 148.62 110.992 148.938 110.992 149.344C110.992 149.786 111.148 150.141 111.461 150.406C111.779 150.672 112.396 150.969 113.312 151.297C114.078 151.573 114.635 151.823 114.984 152.047C115.333 152.266 115.594 152.516 115.766 152.797C115.943 153.078 116.031 153.409 116.031 153.789ZM118.992 156H118.219V147.508H118.992V156ZM118.109 145.148C118.109 144.648 118.273 144.398 118.602 144.398C118.763 144.398 118.888 144.464 118.977 144.594C119.07 144.724 119.117 144.909 119.117 145.148C119.117 145.383 119.07 145.568 118.977 145.703C118.888 145.839 118.763 145.906 118.602 145.906C118.273 145.906 118.109 145.654 118.109 145.148ZM124.086 155.469C124.576 155.469 125.003 155.427 125.367 155.344V155.969C124.992 156.094 124.56 156.156 124.07 156.156C123.32 156.156 122.766 155.956 122.406 155.555C122.052 155.154 121.875 154.523 121.875 153.664V148.18H120.617V147.727L121.875 147.375L122.266 145.453H122.664V147.508H125.156V148.18H122.664V153.555C122.664 154.206 122.779 154.688 123.008 155C123.237 155.312 123.596 155.469 124.086 155.469ZM133.219 156L129.938 147.508H130.734L132.93 153.281C133.221 154.021 133.44 154.667 133.586 155.219H133.633C133.846 154.51 134.065 153.859 134.289 153.266L136.484 147.508H137.281L134 156H133.219ZM145.727 151.742C145.727 153.128 145.391 154.211 144.719 154.992C144.047 155.768 143.12 156.156 141.938 156.156C141.193 156.156 140.536 155.977 139.969 155.617C139.401 155.258 138.966 154.742 138.664 154.07C138.362 153.398 138.211 152.622 138.211 151.742C138.211 150.357 138.547 149.279 139.219 148.508C139.891 147.732 140.812 147.344 141.984 147.344C143.151 147.344 144.065 147.737 144.727 148.523C145.393 149.305 145.727 150.378 145.727 151.742ZM139.023 151.742C139.023 152.909 139.279 153.82 139.789 154.477C140.305 155.128 141.031 155.453 141.969 155.453C142.906 155.453 143.63 155.128 144.141 154.477C144.656 153.82 144.914 152.909 144.914 151.742C144.914 150.57 144.654 149.661 144.133 149.016C143.617 148.37 142.891 148.047 141.953 148.047C141.016 148.047 140.292 148.37 139.781 149.016C139.276 149.656 139.023 150.565 139.023 151.742ZM148.852 156H148.078V143.844H148.852V156ZM152.375 147.508V153.008C152.375 153.862 152.555 154.484 152.914 154.875C153.273 155.26 153.831 155.453 154.586 155.453C155.596 155.453 156.339 155.198 156.812 154.688C157.292 154.177 157.531 153.346 157.531 152.195V147.508H158.297V156H157.641L157.5 154.828H157.453C156.901 155.714 155.919 156.156 154.508 156.156C152.576 156.156 151.609 155.122 151.609 153.055V147.508H152.375ZM164.773 156.156C163.466 156.156 162.513 155.667 161.914 154.688H161.859L161.883 155.344C161.904 155.729 161.914 156.151 161.914 156.609V159.844H161.141V147.508H161.797L161.945 148.719H161.992C162.576 147.802 163.508 147.344 164.789 147.344C165.935 147.344 166.807 147.721 167.406 148.477C168.01 149.227 168.312 150.32 168.312 151.758C168.312 153.154 167.995 154.237 167.359 155.008C166.729 155.773 165.867 156.156 164.773 156.156ZM164.758 155.469C165.628 155.469 166.299 155.146 166.773 154.5C167.253 153.854 167.492 152.951 167.492 151.789C167.492 149.294 166.591 148.047 164.789 148.047C163.799 148.047 163.073 148.32 162.609 148.867C162.146 149.409 161.914 150.294 161.914 151.523V151.773C161.914 153.102 162.135 154.049 162.578 154.617C163.026 155.185 163.753 155.469 164.758 155.469ZM172.914 155.469C173.404 155.469 173.831 155.427 174.195 155.344V155.969C173.82 156.094 173.388 156.156 172.898 156.156C172.148 156.156 171.594 155.956 171.234 155.555C170.88 155.154 170.703 154.523 170.703 153.664V148.18H169.445V147.727L170.703 147.375L171.094 145.453H171.492V147.508H173.984V148.18H171.492V153.555C171.492 154.206 171.607 154.688 171.836 155C172.065 155.312 172.424 155.469 172.914 155.469ZM181.188 156L180.992 154.656H180.93C180.503 155.203 180.062 155.591 179.609 155.82C179.161 156.044 178.63 156.156 178.016 156.156C177.182 156.156 176.534 155.943 176.07 155.516C175.607 155.089 175.375 154.497 175.375 153.742C175.375 152.914 175.719 152.271 176.406 151.812C177.099 151.354 178.099 151.112 179.406 151.086L181.023 151.039V150.477C181.023 149.669 180.859 149.06 180.531 148.648C180.203 148.237 179.674 148.031 178.945 148.031C178.159 148.031 177.344 148.25 176.5 148.688L176.211 148.016C177.143 147.578 178.065 147.359 178.977 147.359C179.909 147.359 180.604 147.602 181.062 148.086C181.526 148.57 181.758 149.326 181.758 150.352V156H181.188ZM178.062 155.453C178.969 155.453 179.682 155.195 180.203 154.68C180.729 154.159 180.992 153.438 180.992 152.516V151.68L179.508 151.742C178.315 151.799 177.464 151.987 176.953 152.305C176.448 152.617 176.195 153.107 176.195 153.773C176.195 154.305 176.357 154.719 176.68 155.016C177.008 155.307 177.469 155.453 178.062 155.453ZM186.758 155.469C187.247 155.469 187.674 155.427 188.039 155.344V155.969C187.664 156.094 187.232 156.156 186.742 156.156C185.992 156.156 185.438 155.956 185.078 155.555C184.724 155.154 184.547 154.523 184.547 153.664V148.18H183.289V147.727L184.547 147.375L184.938 145.453H185.336V147.508H187.828V148.18H185.336V153.555C185.336 154.206 185.451 154.688 185.68 155C185.909 155.312 186.268 155.469 186.758 155.469ZM193.305 156.156C192.07 156.156 191.107 155.776 190.414 155.016C189.727 154.255 189.383 153.19 189.383 151.82C189.383 150.466 189.716 149.383 190.383 148.57C191.049 147.753 191.948 147.344 193.078 147.344C194.078 147.344 194.867 147.693 195.445 148.391C196.023 149.089 196.312 150.036 196.312 151.234V151.859H190.195C190.206 153.026 190.477 153.917 191.008 154.531C191.544 155.146 192.31 155.453 193.305 155.453C193.789 155.453 194.214 155.419 194.578 155.352C194.948 155.284 195.414 155.138 195.977 154.914V155.617C195.497 155.826 195.055 155.966 194.648 156.039C194.242 156.117 193.794 156.156 193.305 156.156ZM193.078 148.031C192.26 148.031 191.604 148.302 191.109 148.844C190.615 149.38 190.326 150.156 190.242 151.172H195.492C195.492 150.188 195.279 149.419 194.852 148.867C194.424 148.31 193.833 148.031 193.078 148.031ZM209.266 156V150.43C209.266 149.602 209.104 148.997 208.781 148.617C208.458 148.237 207.964 148.047 207.297 148.047C206.427 148.047 205.784 148.286 205.367 148.766C204.951 149.245 204.742 149.997 204.742 151.023V156H203.953V150.195C203.953 148.763 203.297 148.047 201.984 148.047C201.094 148.047 200.445 148.307 200.039 148.828C199.633 149.344 199.43 150.172 199.43 151.312V156H198.656V147.508H199.297L199.461 148.672H199.508C199.742 148.25 200.076 147.924 200.508 147.695C200.94 147.461 201.417 147.344 201.938 147.344C203.276 147.344 204.135 147.846 204.516 148.852H204.547C204.823 148.367 205.193 147.995 205.656 147.734C206.125 147.474 206.656 147.344 207.25 147.344C208.177 147.344 208.872 147.591 209.336 148.086C209.799 148.581 210.031 149.367 210.031 150.445V156H209.266Z" fill="#060000"/>
<path d="M28.572 51.516V41.4H25.692V54H37.482V51.516H28.572ZM46.2338 54.396C51.1478 54.396 54.2438 51.912 54.2438 47.7C54.2438 43.488 51.1478 41.004 46.2338 41.004C41.3198 41.004 38.2238 43.488 38.2238 47.7C38.2238 51.912 41.3198 54.396 46.2338 54.396ZM46.2338 51.912C43.1018 51.912 41.1578 50.4 41.1578 47.7C41.1578 45 43.1198 43.488 46.2338 43.488C49.3478 43.488 51.3098 45 51.3098 47.7C51.3098 50.4 49.3478 51.912 46.2338 51.912ZM71.3124 54L67.4244 49.518C69.5124 49.032 70.9344 47.7 70.9344 45.558C70.9344 42.822 68.6124 41.4 65.5344 41.4H56.8404V54H59.7024V49.716H64.2564L67.8744 54H71.3124ZM59.6844 47.34V43.812H65.3724C66.8844 43.812 68.0004 44.172 68.0004 45.576C68.0004 46.98 66.8844 47.34 65.3724 47.34H59.6844ZM76.472 51.588V48.816H84.77V46.404H76.472V43.812H86.408V41.4H73.61V54H86.588V51.588H76.472ZM102.867 41.4L97.5387 48.06L92.2107 41.4H89.0787V54H91.8687V45.234L97.3947 51.984H97.5387L103.065 45.234V54H105.945V41.4H102.867ZM117.201 54V41.4H114.321V54H117.201ZM129.201 41.4H120.579V54H123.459V49.932H129.201C132.441 49.932 134.601 48.456 134.601 45.666C134.601 42.912 132.441 41.4 129.201 41.4ZM128.967 47.556H123.459V43.812H128.967C130.587 43.812 131.667 44.244 131.667 45.684C131.667 47.124 130.587 47.556 128.967 47.556ZM143.372 46.242C140.87 46.044 139.07 45.936 139.07 44.856C139.07 43.704 141.158 43.398 142.868 43.416C144.92 43.434 146.63 43.866 148.016 44.928L149.6 42.93C147.998 41.688 145.622 41.004 142.868 41.004C138.98 41.004 136.172 42.444 136.172 45.072C136.172 47.772 139.52 48.564 143.12 48.87C146.018 49.122 147.314 49.41 147.314 50.454C147.314 51.498 146.018 51.984 143.462 51.984C140.888 51.984 138.89 51.318 137.342 49.896L135.686 51.858C137.612 53.496 140.204 54.396 143.39 54.396C147.854 54.396 150.212 52.668 150.212 50.184C150.212 47.412 147.386 46.566 143.372 46.242ZM163.605 41.4V47.844C163.605 50.364 162.129 51.876 159.411 51.876C156.693 51.876 155.217 50.364 155.217 47.844V41.4H152.337V48.06C152.337 51.84 154.839 54.396 159.411 54.396C163.983 54.396 166.485 51.84 166.485 48.06V41.4H163.605ZM183.427 41.4L178.099 48.06L172.771 41.4H169.639V54H172.429V45.234L177.955 51.984H178.099L183.625 45.234V54H186.505V41.4H183.427ZM38.166 65.4H24.306V67.884H29.778V78H32.658V67.884H38.166V65.4ZM54.6132 78L50.7252 73.518C52.8132 73.032 54.2352 71.7 54.2352 69.558C54.2352 66.822 51.9132 65.4 48.8352 65.4H40.1412V78H43.0032V73.716H47.5572L51.1752 78H54.6132ZM42.9852 71.34V67.812H48.6732C50.1852 67.812 51.3012 68.172 51.3012 69.576C51.3012 70.98 50.1852 71.34 48.6732 71.34H42.9852ZM68.4885 78H71.6025L64.9245 65.4H61.7745L55.0965 78H58.1745L59.5245 75.336H67.1385L68.4885 78ZM60.7125 72.996L63.3225 67.866L65.9325 72.996H60.7125ZM83.7988 65.4H69.9388V67.884H75.4108V78H78.2908V67.884H83.7988V65.4ZM95.5237 78H98.6377L91.9597 65.4H88.8097L82.1317 78H85.2097L86.5597 75.336H94.1737L95.5237 78ZM87.7477 72.996L90.3577 67.866L92.9677 72.996H87.7477ZM110.834 65.4H96.974V67.884H102.446V78H105.326V67.884H110.834V65.4ZM123.861 65.4V71.844C123.861 74.364 122.385 75.876 119.667 75.876C116.949 75.876 115.473 74.364 115.473 71.844V65.4H112.593V72.06C112.593 75.84 115.095 78.396 119.667 78.396C124.239 78.396 126.741 75.84 126.741 72.06V65.4H123.861ZM132.775 75.516V65.4H129.895V78H141.685V75.516H132.775ZM146.574 78V65.4H143.694V78H146.574ZM38.166 89.4H24.306V91.884H29.778V102H32.658V91.884H38.166V89.4ZM54.6132 102L50.7252 97.518C52.8132 97.032 54.2352 95.7 54.2352 93.558C54.2352 90.822 51.9132 89.4 48.8352 89.4H40.1412V102H43.0032V97.716H47.5572L51.1752 102H54.6132ZM42.9852 95.34V91.812H48.6732C50.1852 91.812 51.3012 92.172 51.3012 93.576C51.3012 94.98 50.1852 95.34 48.6732 95.34H42.9852ZM68.4885 102H71.6025L64.9245 89.4H61.7745L55.0965 102H58.1745L59.5245 99.336H67.1385L68.4885 102ZM60.7125 96.996L63.3225 91.866L65.9325 96.996H60.7125ZM83.7988 89.4H69.9388V91.884H75.4108V102H78.2908V91.884H83.7988V89.4ZM95.5237 102H98.6377L91.9597 89.4H88.8097L82.1317 102H85.2097L86.5597 99.336H94.1737L95.5237 102ZM87.7477 96.996L90.3577 91.866L92.9677 96.996H87.7477ZM110.834 89.4H96.974V91.884H102.446V102H105.326V91.884H110.834V89.4ZM122.559 102H125.673L118.995 89.4H115.845L109.167 102H112.245L113.595 99.336H121.209L122.559 102ZM114.783 96.996L117.393 91.866L120.003 96.996H114.783ZM137.869 89.4H124.009V91.884H129.481V102H132.361V91.884H137.869V89.4ZM150.896 89.4V95.844C150.896 98.364 149.42 99.876 146.702 99.876C143.984 99.876 142.508 98.364 142.508 95.844V89.4H139.628V96.06C139.628 99.84 142.13 102.396 146.702 102.396C151.274 102.396 153.776 99.84 153.776 96.06V89.4H150.896ZM163.464 94.242C160.962 94.044 159.162 93.936 159.162 92.856C159.162 91.704 161.25 91.398 162.96 91.416C165.012 91.434 166.722 91.866 168.108 92.928L169.692 90.93C168.09 89.688 165.714 89.004 162.96 89.004C159.072 89.004 156.264 90.444 156.264 93.072C156.264 95.772 159.612 96.564 163.212 96.87C166.11 97.122 167.406 97.41 167.406 98.454C167.406 99.498 166.11 99.984 163.554 99.984C160.98 99.984 158.982 99.318 157.434 97.896L155.778 99.858C157.704 101.496 160.296 102.396 163.482 102.396C167.946 102.396 170.304 100.668 170.304 98.184C170.304 95.412 167.478 94.566 163.464 94.242ZM184.111 89.4V94.35H175.525V89.4H172.645V102H175.525V96.87H184.111V102H186.991V89.4H184.111ZM204.871 102L198.661 94.368L204.529 89.4H200.749L193.261 95.79V89.4H190.381V102H193.261V98.868L196.555 96.078L201.415 102H204.871ZM209.363 102V89.4H206.483V102H209.363Z" fill="#060000"/>
<path opacity="0.3" d="M223.994 24H218.363V23.1621L220.619 20.8945C221.307 20.1992 221.76 19.7031 221.979 19.4062C222.197 19.1094 222.361 18.8203 222.471 18.5391C222.58 18.2578 222.635 17.9551 222.635 17.6309C222.635 17.1738 222.496 16.8125 222.219 16.5469C221.941 16.2773 221.557 16.1426 221.064 16.1426C220.709 16.1426 220.371 16.2012 220.051 16.3184C219.734 16.4355 219.381 16.6484 218.99 16.957L218.475 16.2949C219.264 15.6387 220.123 15.3105 221.053 15.3105C221.857 15.3105 222.488 15.5176 222.945 15.9316C223.402 16.3418 223.631 16.8945 223.631 17.5898C223.631 18.1328 223.479 18.6699 223.174 19.2012C222.869 19.7324 222.299 20.4043 221.463 21.2168L219.588 23.0508V23.0977H223.994V24ZM232.73 24L229.824 16.4062H229.777C229.832 17.0078 229.859 17.7227 229.859 18.5508V24H228.939V15.4336H230.439L233.152 22.5H233.199L235.936 15.4336H237.424V24H236.428V18.4805C236.428 17.8477 236.455 17.1602 236.51 16.418H236.463L233.533 24H232.73ZM239.779 24V15.4336H240.775V24H239.779ZM249.822 24H248.686L244.004 16.8105H243.957C244.02 17.6543 244.051 18.4277 244.051 19.1309V24H243.131V15.4336H244.256L248.926 22.5938H248.973C248.965 22.4883 248.947 22.1504 248.92 21.5801C248.893 21.0059 248.883 20.5957 248.891 20.3496V15.4336H249.822V24Z" fill="black"/>
<path opacity="0.3" d="M26.1738 24H25.1777V15.4336H29.9531V16.3184H26.1738V19.4531H29.7246V20.3379H26.1738V24ZM36.7617 24L35.6953 21.2754H32.2617L31.207 24H30.1992L33.5859 15.3984H34.4238L37.793 24H36.7617ZM35.3848 20.3789L34.3887 17.7246C34.2598 17.3887 34.127 16.9766 33.9902 16.4883C33.9043 16.8633 33.7812 17.2754 33.6211 17.7246L32.6133 20.3789H35.3848ZM43.8047 21.7207C43.8047 22.4746 43.5312 23.0625 42.9844 23.4844C42.4375 23.9062 41.6953 24.1172 40.7578 24.1172C39.7422 24.1172 38.9609 23.9863 38.4141 23.7246V22.7637C38.7656 22.9121 39.1484 23.0293 39.5625 23.1152C39.9766 23.2012 40.3867 23.2441 40.793 23.2441C41.457 23.2441 41.957 23.1191 42.293 22.8691C42.6289 22.6152 42.7969 22.2637 42.7969 21.8145C42.7969 21.5176 42.7363 21.2754 42.6152 21.0879C42.498 20.8965 42.2988 20.7207 42.0176 20.5605C41.7402 20.4004 41.3164 20.2188 40.7461 20.0156C39.9492 19.7305 39.3789 19.3926 39.0352 19.002C38.6953 18.6113 38.5254 18.1016 38.5254 17.4727C38.5254 16.8125 38.7734 16.2871 39.2695 15.8965C39.7656 15.5059 40.4219 15.3105 41.2383 15.3105C42.0898 15.3105 42.873 15.4668 43.5879 15.7793L43.2773 16.6465C42.5703 16.3496 41.8828 16.2012 41.2148 16.2012C40.6875 16.2012 40.2754 16.3145 39.9785 16.541C39.6816 16.7676 39.5332 17.082 39.5332 17.4844C39.5332 17.7812 39.5879 18.0254 39.6973 18.2168C39.8066 18.4043 39.9902 18.5781 40.248 18.7383C40.5098 18.8945 40.9082 19.0684 41.4434 19.2598C42.3418 19.5801 42.959 19.9238 43.2949 20.291C43.6348 20.6582 43.8047 21.1348 43.8047 21.7207ZM52.0605 24H51.0645V19.9688H46.5527V24H45.5566V15.4336H46.5527V19.0781H51.0645V15.4336H52.0605V24ZM54.416 24V15.4336H55.4121V24H54.416ZM65.2031 19.7051C65.2031 21.0762 64.8555 22.1543 64.1602 22.9395C63.4688 23.7246 62.5059 24.1172 61.2715 24.1172C60.0098 24.1172 59.0352 23.7324 58.3477 22.9629C57.6641 22.1895 57.3223 21.0996 57.3223 19.6934C57.3223 18.2988 57.666 17.2188 58.3535 16.4531C59.041 15.6836 60.0176 15.2988 61.2832 15.2988C62.5137 15.2988 63.4746 15.6895 64.166 16.4707C64.8574 17.252 65.2031 18.3301 65.2031 19.7051ZM58.377 19.7051C58.377 20.8652 58.623 21.7461 59.1152 22.3477C59.6113 22.9453 60.3301 23.2441 61.2715 23.2441C62.2207 23.2441 62.9375 22.9453 63.4219 22.3477C63.9062 21.75 64.1484 20.8691 64.1484 19.7051C64.1484 18.5527 63.9062 17.6797 63.4219 17.0859C62.9414 16.4883 62.2285 16.1895 61.2832 16.1895C60.334 16.1895 59.6113 16.4902 59.1152 17.0918C58.623 17.6895 58.377 18.5605 58.377 19.7051ZM73.8105 24H72.6738L67.9922 16.8105H67.9453C68.0078 17.6543 68.0391 18.4277 68.0391 19.1309V24H67.1191V15.4336H68.2441L72.9141 22.5938H72.9609C72.9531 22.4883 72.9355 22.1504 72.9082 21.5801C72.8809 21.0059 72.8711 20.5957 72.8789 20.3496V15.4336H73.8105V24Z" fill="black"/>
<path opacity="0.3" d="M284.308 25L280.154 22.3333L276 25V13H284.308V25Z" stroke="black"/>
<path opacity="0.3" fill-rule="evenodd" clip-rule="evenodd" d="M206 19C206 21.7614 203.761 24 201 24C198.239 24 196 21.7614 196 19C196 16.2386 198.239 14 201 14C203.761 14 206 16.2386 206 19ZM207 19C207 22.3137 204.314 25 201 25C197.686 25 195 22.3137 195 19C195 15.6863 197.686 13 201 13C204.314 13 207 15.6863 207 19ZM200.5 16V19.3333V19.5675L200.68 19.7174L202.68 21.3841L203.32 20.6159L201.5 19.0991V16H200.5Z" fill="black"/>
</svg>
